<?xml version="1.0" encoding="UTF-8"?>
<svg width="16px" height="16px" viewBox="0 0 16 16" xmlns="http://www.w3.org/2000/svg">
 <filter id="a" x="0%" y="0%" width="100%" height="100%">
  <feColorMatrix in="SourceGraphic" values="0 0 0 0 1 0 0 0 0 1 0 0 0 0 1 0 0 0 1 0"/>
 </filter>
 <mask id="b">
  <g filter="url(#a)">
   <path d="m0 0h16v16h-16z" fill-opacity=".3"/>
  </g>
 </mask>
 <clipPath id="c">
  <path d="m0 0h800v800h-800z"/>
 </clipPath>
 <mask id="d">
  <g filter="url(#a)">
   <path d="m0 0h16v16h-16z" fill-opacity=".35"/>
  </g>
 </mask>
 <clipPath id="e">
  <path d="m0 0h800v800h-800z"/>
 </clipPath>
 <mask id="f">
  <g filter="url(#a)">
   <path d="m0 0h16v16h-16z" fill-opacity=".35"/>
  </g>
 </mask>
 <clipPath id="g">
  <path d="m0 0h800v800h-800z"/>
 </clipPath>
 <mask id="h">
  <g filter="url(#a)">
   <path d="m0 0h16v16h-16z" fill-opacity=".35"/>
  </g>
 </mask>
 <clipPath id="i">
  <path d="m0 0h800v800h-800z"/>
 </clipPath>
 <mask id="j">
  <g filter="url(#a)">
   <path d="m0 0h16v16h-16z" fill-opacity=".35"/>
  </g>
 </mask>
 <clipPath id="k">
  <path d="m0 0h800v800h-800z"/>
 </clipPath>
 <g fill="#2e3436">
  <path d="m3 0.98828c-1.6445 0-3 1.3555-3 3v8c0 1.6445 1.3555 3 3 3h10c1.6445 0 3-1.3555 3-3v-8c0-1.6445-1.3555-3-3-3zm0 2h10c0.57031 0 1 0.42969 1 1v8c0 0.57031-0.42969 1-1 1h-10c-0.57031 0-1-0.42969-1-1v-8c0-0.57031 0.42969-1 1-1z"/>
  <path d="m15 9.4883h-14v4.5h14z" fill-opacity=".35"/>
  <path d="m1 9.9883v-1h14v1z"/>
 </g>
 <g transform="translate(-380 -340.01)" clip-path="url(#c)" mask="url(#b)">
  <path d="m142.5 351h10.449c-1.1836 0.49219-1.2969 2.457 0 3h-10.449z" fill="#2e3436"/>
 </g>
 <g transform="translate(-380 -340.01)" clip-path="url(#e)" mask="url(#d)">
  <path d="m104 502c0 0.55078-0.44922 1-1 1s-1-0.44922-1-1 0.44922-1 1-1 1 0.44922 1 1z" fill="#2e3436"/>
 </g>
 <g transform="translate(-380 -340.01)" clip-path="url(#g)" mask="url(#f)">
  <path d="m106 501v2h8v-2z" fill="#2e3436" fill-rule="evenodd"/>
 </g>
 <g transform="translate(-380 -340.01)" clip-path="url(#i)" mask="url(#h)">
  <path d="m104 514c0 0.55078-0.44922 1-1 1s-1-0.44922-1-1 0.44922-1 1-1 1 0.44922 1 1z" fill="#2e3436"/>
 </g>
 <g transform="translate(-380 -340.01)" clip-path="url(#k)" mask="url(#j)">
  <path d="m106 513v2h8v-2z" fill="#2e3436" fill-rule="evenodd"/>
 </g>
</svg>
