<?xml version="1.0" encoding="UTF-8"?>
<svg width="64" height="64" version="1.0" xmlns="http://www.w3.org/2000/svg">
 <g transform="translate(0 -236)">
  <rect x="4.101" y="240.16" width="56.02" height="55.841" rx="3.804" ry="3.804" fill="#fff" overflow="visible" stroke="#98c1f1" stroke-width="4"/>
  <path d="M4.352 239.04h57.102v57.102H4.352z" fill="none" overflow="visible" style="isolation:auto;mix-blend-mode:normal"/>
  <rect transform="rotate(90)" x="287.97" y="-30" width="2" height="12" rx="0" ry="0" color="#bebebe" fill="#98c1f1" overflow="visible"/>
  <path d="M17.433 284l-5.719 5.719a1.01 1.01 0 01-.718.281h-1v-1c0-.256.085-.523.28-.719L14.559 284l-4.281-4.281a1.01 1.01 0 01-.281-.719v-1h1c.255 0 .522.085.718.281z" fill="#98c1f1"/>
  <path d="m4.596 255.5h55.08" fill="#eeeeec" overflow="visible" stroke="#98c1f1" style="isolation:auto;mix-blend-mode:normal"/>
  <path d="M49.35 245.956l-.025.025H48.19v1.153l-.018.018 1.78 1.764-1.78 1.763.025.025h-.008v1.16h1.152l.01.01.01-.01h.013v-.014l1.767-1.753 1.793 1.776.01-.01h1.165v-1.16h-.022l.026-.026-1.78-1.763 1.78-1.764-.01-.01h.005v-1.161H52.96l-.025-.025-1.793 1.776z" fill="#98c1f1" font-family="sans-serif" font-weight="400" overflow="visible" style="font-feature-settings:normal;font-variant-alternates:normal;font-variant-caps:normal;font-variant-ligatures:normal;font-variant-numeric:normal;font-variant-position:normal;isolation:auto;mix-blend-mode:normal;shape-padding:0;text-decoration-color:#000;text-decoration-line:none;text-decoration-style:solid;text-indent:0;text-orientation:mixed;text-transform:none;white-space:normal"/>
 </g>
</svg>
