<?xml version="1.0" encoding="UTF-8"?>
<svg width="128px" height="128px" viewBox="0 0 128 128" xmlns="http://www.w3.org/2000/svg">
 <linearGradient id="a" x1="8.1571" x2="122.75" y1="77.241" y2="77.241" gradientUnits="userSpaceOnUse">
  <stop stop-color="#99c1f1" offset="0"/>
  <stop stop-color="#1a5fb4" offset=".057514"/>
  <stop stop-color="#1a5fb4" offset=".38823"/>
  <stop stop-color="#2b7be0" offset=".47302"/>
  <stop stop-color="#154d91" offset=".6188"/>
  <stop stop-color="#1a5fb4" offset=".95354"/>
  <stop stop-color="#2f7fe1" offset="1"/>
 </linearGradient>
 <clipPath id="b">
  <path d="m6 1h117v118h-117z"/>
 </clipPath>
 <clipPath id="c">
  <path d="m70.336 115.85 50.098-50.098c3.2539-3.2539 3.2539-8.5312 0-11.785l-50.098-50.102c-3.2539-3.2539-8.5352-3.2539-11.789 0l-50.098 50.102c-3.2539 3.2539-3.2539 8.5312 0 11.785l50.098 50.098c3.2539 3.2578 8.5352 3.2578 11.789 0z"/>
 </clipPath>
 <path d="m70.406 119.55 50.207-50.207c1.6602-1.6602 2.5742-3.8398 2.4531-6.0039l-0.14062-3.0586-52.52-52.953c-3.2578-3.2891-8.3945-3.1211-11.812 0l-52.551 52.996-0.042969 3.1445c-0.027344 2.125 0.76172 4.2461 2.3906 5.875l50.203 50.207c3.2734 3.2695 8.543 3.2695 11.812 0z" fill="url(#a)"/>
 <g clip-path="url(#b)">
  <g clip-path="url(#c)">
   <path d="m70.336 115.85 50.098-50.098c3.2539-3.2539 3.2539-8.5312 0-11.785l-50.098-50.102c-3.2539-3.2539-8.5352-3.2539-11.789 0l-50.098 50.102c-3.2539 3.2539-3.2539 8.5312 0 11.785l50.098 50.098c3.2539 3.2578 8.5352 3.2578 11.789 0z" fill="#62a0ea"/>
  </g>
 </g>
 <g fill="#99c1f1">
  <path d="m56 50h16v32h-16z"/>
  <path d="m64 35.371 22.629 22.629h-45.258z"/>
 </g>
</svg>
