<?xml version="1.0" encoding="UTF-8"?>
<svg width="128px" height="128px" viewBox="0 0 128 128" xmlns="http://www.w3.org/2000/svg">
 <linearGradient id="a" x1="8.1571" x2="122.75" y1="77.241" y2="77.241" gradientUnits="userSpaceOnUse">
  <stop stop-color="#99c1f1" offset="0"/>
  <stop stop-color="#1a5fb4" offset=".057514"/>
  <stop stop-color="#1a5fb4" offset=".38823"/>
  <stop stop-color="#2b7be0" offset=".47302"/>
  <stop stop-color="#154d91" offset=".6188"/>
  <stop stop-color="#1a5fb4" offset=".95354"/>
  <stop stop-color="#2f7fe1" offset="1"/>
 </linearGradient>
 <clipPath id="b">
  <path d="m6 1h117v118h-117z"/>
 </clipPath>
 <clipPath id="c">
  <path d="m70.336 115.85 50.098-50.098c3.2539-3.2539 3.2539-8.5312 0-11.785l-50.098-50.102c-3.2539-3.2539-8.5352-3.2539-11.789 0l-50.098 50.102c-3.2539 3.2539-3.2539 8.5312 0 11.785l50.098 50.098c3.2539 3.2578 8.5352 3.2578 11.789 0z"/>
 </clipPath>
 <path d="m70.406 119.55 50.207-50.207c1.6602-1.6602 2.5742-3.8398 2.4531-6.0039l-0.14062-3.0586-52.52-52.953c-3.2578-3.2891-8.3945-3.1211-11.812 0l-52.551 52.996-0.042969 3.1445c-0.027344 2.125 0.76172 4.2461 2.3906 5.875l50.203 50.207c3.2734 3.2695 8.543 3.2695 11.812 0z" fill="url(#a)"/>
 <g clip-path="url(#b)">
  <g clip-path="url(#c)">
   <path d="m70.336 115.85 50.098-50.098c3.2539-3.2539 3.2539-8.5312 0-11.785l-50.098-50.102c-3.2539-3.2539-8.5352-3.2539-11.789 0l-50.098 50.102c-3.2539 3.2539-3.2539 8.5312 0 11.785l50.098 50.098c3.2539 3.2578 8.5352 3.2578 11.789 0z" fill="#62a0ea"/>
  </g>
 </g>
 <path d="m64.906 30.562c-0.9375 0-1.875 0.046875-2.7891 0.13281l-1.7266 8.8984c-1.4219 0.3125-2.8164 0.74609-4.1172 1.3281l-6.5078-6.2422c-1.6523 0.97656-3.0898 2.1836-4.5156 3.4531l3.8516 8.1016c-0.94531 1.0586-1.8047 2.2188-2.5234 3.4531l-8.8984-1.1953c-0.75391 1.7383-1.3125 3.5547-1.7266 5.4453l7.8359 4.25c-0.074218 0.71484-0.13281 1.3906-0.13281 2.125s0.0625 1.4102 0.13281 2.125l-7.8359 4.25c0.41406 1.8906 0.97266 3.707 1.7266 5.4453l8.8984-1.1953c0.71875 1.2305 1.5781 2.3945 2.5234 3.4531l-3.8516 8.1016c1.4258 1.2695 2.8633 2.4766 4.5156 3.4531l6.5078-6.2422c1.3008 0.58203 2.6953 1.0156 4.1172 1.3281l1.7266 8.8984c0.91406 0.085937 1.8516 0.13281 2.7891 0.13281s1.875-0.046875 2.7891-0.13281l1.7266-8.8984c1.4219-0.3125 2.8164-0.74609 4.1172-1.3281l6.5078 6.2422c1.6523-0.97656 3.0898-2.1836 4.5156-3.4531l-3.8516-8.1016c0.94531-1.0586 1.8047-2.2227 2.5234-3.4531l8.8984 1.1953c0.75391-1.7383 1.3125-3.5547 1.7266-5.4453l-7.8359-4.25c0.074218-0.71484 0.13281-1.3906 0.13281-2.125s-0.058594-1.4102-0.13281-2.125l7.8359-4.25c-0.41406-1.8906-0.97266-3.707-1.7266-5.4453l-8.8984 1.1953c-0.71875-1.2344-1.5781-2.3945-2.5234-3.4531l3.8516-8.1016c-1.4258-1.2695-2.8633-2.4766-4.5156-3.4531l-6.5078 6.2422c-1.3008-0.58203-2.6953-1.0156-4.1172-1.3281l-1.7266-8.8984c-0.91406-0.085937-1.8516-0.13281-2.7891-0.13281zm0 17c7.043 0 12.75 5.707 12.75 12.75s-5.707 12.75-12.75 12.75-12.75-5.707-12.75-12.75 5.707-12.75 12.75-12.75z" fill="#99c1f1"/>
</svg>
