<?xml version="1.0" encoding="UTF-8"?>
<svg width="16px" height="16px" viewBox="0 0 16 16" xmlns="http://www.w3.org/2000/svg">
 <filter id="a" x="0%" y="0%" width="100%" height="100%">
  <feColorMatrix in="SourceGraphic" values="0 0 0 0 1 0 0 0 0 1 0 0 0 0 1 0 0 0 1 0"/>
 </filter>
 <mask id="b">
  <g filter="url(#a)">
   <rect width="16" height="16" fill-opacity=".2"/>
  </g>
 </mask>
 <clipPath id="c">
  <rect width="192" height="152"/>
 </clipPath>
 <mask id="d">
  <g filter="url(#a)">
   <rect width="16" height="16" fill-opacity=".2"/>
  </g>
 </mask>
 <clipPath id="e">
  <rect width="192" height="152"/>
 </clipPath>
 <mask id="f">
  <g filter="url(#a)">
   <rect width="16" height="16" fill-opacity=".2"/>
  </g>
 </mask>
 <clipPath id="g">
  <rect width="192" height="152"/>
 </clipPath>
 <mask id="h">
  <g filter="url(#a)">
   <rect width="16" height="16" fill-opacity=".2"/>
  </g>
 </mask>
 <clipPath id="i">
  <rect width="192" height="152"/>
 </clipPath>
 <mask id="j">
  <g filter="url(#a)">
   <rect width="16" height="16" fill-opacity=".2"/>
  </g>
 </mask>
 <clipPath id="k">
  <rect width="192" height="152"/>
 </clipPath>
 <mask id="l">
  <g filter="url(#a)">
   <rect width="16" height="16" fill-opacity=".2"/>
  </g>
 </mask>
 <clipPath id="m">
  <rect width="192" height="152"/>
 </clipPath>
 <mask id="n">
  <g filter="url(#a)">
   <rect width="16" height="16" fill-opacity=".2"/>
  </g>
 </mask>
 <clipPath id="o">
  <rect width="192" height="152"/>
 </clipPath>
 <mask id="p">
  <g filter="url(#a)">
   <rect width="16" height="16" fill-opacity=".05"/>
  </g>
 </mask>
 <clipPath id="q">
  <rect width="192" height="152"/>
 </clipPath>
 <g transform="translate(-168 -16)" clip-path="url(#c)" mask="url(#b)">
  <path d="m94.215 39.391-3.3789 7.25-1.8125-0.84375 3.3789-7.25z"/>
 </g>
 <g transform="translate(-168 -16)" clip-path="url(#e)" mask="url(#d)">
  <path d="m97.84 41.082-3.3789 7.25-1.8125-0.84375 3.3789-7.2539z"/>
 </g>
 <g transform="translate(-168 -16)" clip-path="url(#g)" mask="url(#f)">
  <path d="m101.46 42.773-3.3789 7.25-1.8125-0.84766 3.3789-7.25z"/>
 </g>
 <g transform="translate(-168 -16)" clip-path="url(#i)" mask="url(#h)">
  <path d="m68 38.129h8v2h-8z"/>
 </g>
 <g transform="translate(-168 -16)" clip-path="url(#k)" mask="url(#j)">
  <path d="m70 28.129v8h-2v-8z"/>
 </g>
 <g transform="translate(-168 -16)" clip-path="url(#m)" mask="url(#l)">
  <path d="m74 28.129v8h-2v-8z"/>
 </g>
 <g transform="translate(-168 -16)" clip-path="url(#o)" mask="url(#n)">
  <path d="m78 28.129v8h-2v-8z"/>
 </g>
 <g transform="translate(-168 -16)" clip-path="url(#q)" mask="url(#p)">
  <path d="m73.375 58.156c-3.6055-0.13672-7.2109 0.26562-10.691 1.1992-15.863 4.2734-26.82 18.738-26.637 35.164 0.69922-15.68 11.477-29.094 26.637-33.164 19.203-5.1445 38.945 6.2539 44.09 25.457 0.76562 2.9141 1.1602 5.9141 1.1797 8.9297 0.16797-3.6836-0.23047-7.3672-1.1797-10.93-4.0859-15.246-17.625-26.055-33.398-26.656z"/>
 </g>
 <g fill="#bebebe">
  <path d="m8 1c-4.1289 0-7.5 3.3711-7.5 7.5s3.3711 7.5 7.5 7.5 7.5-3.3711 7.5-7.5-3.3711-7.5-7.5-7.5zm0 2.1445c2.9727 0 5.3555 2.3828 5.3555 5.3555s-2.3828 5.3594-5.3555 5.3594-5.3594-2.3867-5.3594-5.3594 2.3867-5.3555 5.3594-5.3555z"/>
  <path d="m8 4.0312c-0.55078 0-1 0.44922-1 1v2.2031c-0.61719 0.35547-0.99609 1.0156-1 1.7266 0.003906 0.71094 0.38281 1.3711 1 1.7266v0.27344c0 0.55078 0.44922 1 1 1s1-0.44922 1-1v-0.27344c0.61719-0.35547 0.99609-1.0156 1-1.7266 0-0.71484-0.38281-1.375-1-1.7305v-2.1992c0-0.55078-0.44922-1-1-1zm0 3.9297c0.55078 0 1 0.44922 1 1 0 0.55078-0.44922 1-1 1s-1-0.44922-1-1c0-0.55078 0.44922-1 1-1z"/>
  <path d="m7 0h2c0.55078 0 1 0.44922 1 1s-0.44922 1-1 1h-2c-0.55078 0-1-0.44922-1-1s0.44922-1 1-1z"/>
  <path d="m13.656 1.9141 1.4141 1.4141c0.39063 0.39062 0.39063 1.0234 0 1.4141l-0.55078 0.55078c-0.39062 0.39062-1.0234 0.39062-1.4141 0l-1.4141-1.4141c-0.39062-0.39062-0.39062-1.0234 0-1.4141l0.55078-0.55078c0.39062-0.39062 1.0234-0.39062 1.4141 0z"/>
 </g>
</svg>
