<?xml version="1.0" encoding="UTF-8"?>
<svg width="16px" height="16px" viewBox="0 0 16 16" xmlns="http://www.w3.org/2000/svg">
 <path d="m7 0c-3.8516 0-7 3.1484-7 7s3.1484 7 7 7c1.5742 0 3.0312-0.52734 4.2031-1.4141 0.03125 0.039062 0.066406 0.074218 0.10156 0.10937l3 3c0.95703 0.9375 2.3633-0.5 1.4062-1.4375l-3-3c-0.03125-0.03125-0.0625-0.058593-0.097657-0.085937 0.87109-1.168 1.3867-2.6094 1.3867-4.1719 0-3.8516-3.1484-7-7-7zm0 2c2.7617 0 5 2.2383 5 5s-2.2383 5-5 5-5-2.2383-5-5 2.2383-5 5-5zm-0.011719 2.0117c-0.55469 0-1 0.44922-1 1v0.98828h-0.98828c-0.55469 0-1 0.44531-1 1s0.44531 1 1 1h0.98828v0.98828c0 0.55078 0.44531 1 1 1 0.55078 0 1-0.44922 1-1v-0.98828h0.98438c0.55078 0 1-0.44531 1-1s-0.44922-1-1-1h-0.98438v-0.98828c0-0.55078-0.44922-1-1-1z" fill="#222"/>
</svg>
