<?xml version="1.0" encoding="UTF-8"?>
<svg width="16px" height="16px" viewBox="0 0 16 16" xmlns="http://www.w3.org/2000/svg">
 <path d="m8 0c-4.4062 0-8 3.5938-8 8s3.5938 8 8 8 8-3.5938 8-8-3.5938-8-8-8zm0 2c3.3242 0 6 2.6758 6 6s-2.6758 6-6 6-6-2.6758-6-6 2.6758-6 6-6zm-3.0664 2.957c-0.13281 0-0.26172 0.054688-0.35547 0.14844-0.19141 0.19922-0.1875 0.51562 0.011719 0.70703l3.1094 3.0469c0.10547 0.09375 0.24609 0.14062 0.38672 0.12891h2.9141c0.27734 0 0.5-0.22656 0.5-0.5 0-0.27734-0.22266-0.5-0.5-0.5h-2.7617l-2.9531-2.8906c-0.09375-0.09375-0.22266-0.14453-0.35156-0.14062z" fill="#222"/>
</svg>
