<?xml version="1.0" encoding="UTF-8"?>
<svg width="16px" height="16px" viewBox="0 0 16 16" xmlns="http://www.w3.org/2000/svg">
 <path d="m4 1c-1.6602 0-3 1.3398-3 3v6c0 1.6602 1.3398 3 3 3h8c1.6602 0 3-1.3398 3-3v-6c0-1.6602-1.3398-3-3-3zm0 2h8c0.55469 0 1 0.44531 1 1v6c0 0.55469-0.44531 1-1 1h-8c-0.55469 0-1-0.44531-1-1v-6c0-0.55469 0.44531-1 1-1zm6.5 1s-0.5 0-0.5 0.5v0.98828s0 0.5 0.5 0.5h1s0.5 0 0.5-0.5v-0.98438s0-0.5-0.5-0.5zm-6 1s-0.5 0-0.5 0.5v4c0 0.5 0.5 0.5 0.5 0.5h4c0.5 0 0.5-0.5 0.5-0.5v-4c0-0.5-0.4375-0.5-0.5-0.5zm0.5 2h3v2h-3zm3 7c-5 0-5 1-5 1 0 1 1 1 1 1h8c1 0 1-1 1-1s0-1-5-1z" fill="#222"/>
</svg>
