<?xml version="1.0" encoding="UTF-8"?>
<svg width="16px" height="16px" viewBox="0 0 16 16" xmlns="http://www.w3.org/2000/svg">
 <path d="m3 1c-1.6445 0-3 1.3555-3 3v7c0 1.6445 1.3555 3 3 3h1.9961c0.54688 0 0.99219-0.44531 0.99219-0.99219v-0.015624c0-0.54688-0.44531-0.99219-0.99219-0.99219h-1.9961c-0.57031 0-1-0.42969-1-1v-7c0-0.57031 0.42969-1 1-1h9.0078c0.56641 0 1 0.42969 1 1v2.0117c0 0.54688 0.44141 0.98828 0.98438 0.98828h0.027343c0.54297 0 0.98828-0.44141 0.98828-0.98828v-2.0117c0-1.6445-1.3594-3-3-3zm4.0469 5c-0.72656-0.03125-1.2422 0.69531-0.97266 1.3711l3.1953 8c0.33594 0.83984 1.5273 0.83984 1.8633-0.003906l1.1992-3.0352 3.0352-1.1992c0.84375-0.33594 0.84375-1.5273 0.003906-1.8633l-8-3.1953c-0.10156-0.042969-0.21484-0.066407-0.32422-0.074219zm1.7461 2.793 3.5 1.4023-1.0977 0.4375c-0.25781 0.10156-0.46094 0.30469-0.5625 0.5625l-0.4375 1.0977z" fill="#222"/>
</svg>
