<?xml version="1.0" encoding="UTF-8"?>
<svg width="16px" height="16px" viewBox="0 0 16 16" xmlns="http://www.w3.org/2000/svg">
 <path d="m6.5078 0c-1.3828 0-2.5 1.1133-2.5 2.5v0.5h-3c-0.54687 0-1 0.44922-1 1s0.45313 1 1 1h1v8c0 1.6602 1.3438 3 3 3h6.0039c1.6562 0 3-1.3398 3-3v-8h1c0.54688 0 1-0.44922 1-1s-0.45312-1-1-1h-3.0195v-0.5c0-1.3867-1.1211-2.5-2.5039-2.5zm0 2h2.9805c0.26953 0 0.5 0.23047 0.5 0.5v0.5h-3.9805v-0.5c0-0.26953 0.23438-0.5 0.5-0.5zm-2.5 3h8.0039v8c0 0.54688-0.45703 1-1 1h-6.0039c-0.54297 0-1-0.45312-1-1zm2.5 1.5c-0.27344 0-0.5 0.22266-0.5 0.5v5c0 0.27734 0.22656 0.5 0.5 0.5 0.27734 0 0.5-0.22266 0.5-0.5v-5c0-0.27734-0.22266-0.5-0.5-0.5zm3.0039 0c-0.27734 0-0.5 0.22266-0.5 0.5v5c0 0.27734 0.22266 0.5 0.5 0.5 0.27344 0 0.5-0.22266 0.5-0.5v-5c0-0.27734-0.22656-0.5-0.5-0.5z" fill="#222"/>
</svg>
