<?xml version="1.0" encoding="UTF-8"?>
<svg width="16px" height="16px" viewBox="0 0 16 16" xmlns="http://www.w3.org/2000/svg">
 <path d="m3 1c-1.6445 0-3 1.3555-3 3v4c0 1.6445 1.3555 3 3 3h1v1c0 1.6445 1.3555 3 3 3h6c1.6445 0 3-1.3555 3-3v-4c0-1.6445-1.3555-3-3-3h-1v-1c0-1.6445-1.3555-3-3-3zm0 2h6c0.57031 0 1 0.42969 1 1v1h-3c-1.6445 0-3 1.3555-3 3v1h-1c-0.57031 0-1-0.42969-1-1v-4c0-0.57031 0.42969-1 1-1zm4 4h6c0.57031 0 1 0.42969 1 1v4c0 0.57031-0.42969 1-1 1h-6c-0.57031 0-1-0.42969-1-1v-4c0-0.57031 0.42969-1 1-1z" fill="#222"/>
</svg>
