<?xml version="1.0" encoding="UTF-8"?>
<svg width="16px" height="16px" viewBox="0 0 16 16" xmlns="http://www.w3.org/2000/svg">
 <path d="m3 0c-1.6602 0-3 1.3398-3 3v7c0 1.6602 1.3398 3 3 3h10c1.6602 0 3-1.3398 3-3v-7c0-1.6602-1.3398-3-3-3zm0 2h10c0.55469 0 1 0.44531 1 1v3h-2.6406c-0.19922 0-0.37891 0.12109-0.45703 0.30078l-0.38672 0.89453-1.5508-3.8828c-0.078125-0.19531-0.26953-0.32031-0.48047-0.3125s-0.39453 0.14453-0.45703 0.34375l-1.5273 4.5742-0.52734-1.5742c-0.066406-0.20703-0.25781-0.34375-0.47266-0.34375h-3.5v-3c0-0.55469 0.44531-1 1-1zm5.543 2.957 1.4922 3.7305c0.074219 0.1875 0.25391 0.30859 0.45703 0.3125 0.20312 0.003906 0.38672-0.11719 0.46484-0.30078l0.73047-1.6992h2.3125v3c0 0.55469-0.44531 1-1 1h-10c-0.55469 0-1-0.44531-1-1v-3h3.1406l0.88672 2.6562c0.066406 0.20703 0.25781 0.34375 0.47266 0.34375s0.40625-0.13672 0.47266-0.34375zm-0.54297 9.043c-5 0-5 1-5 1 0 1 1 1 1 1h8c1 0 1-1 1-1s0-1-5-1z" fill="#222"/>
</svg>
