<?xml version="1.0" encoding="UTF-8"?>
<svg width="16px" height="16px" viewBox="0 0 16 16" xmlns="http://www.w3.org/2000/svg">
 <path d="m8 0c-1.6602 0-3 1.3398-3 3v5c0 1.6602 1.3398 3 3 3s3-1.3398 3-3v-5c0-1.6602-1.3398-3-3-3zm0 2c0.55469 0 1 0.44531 1 1v5c0 0.55469-0.44531 1-1 1s-1-0.44531-1-1v-5c0-0.55469 0.44531-1 1-1zm-6 5v1.0117c0 2.9648 2.1641 5.4297 5 5.9062v2.082h2v-2.082c2.8359-0.47656 5-2.9414 5-5.9062v-1.0117h-1.5v1.0117c0 2.5-1.9922 4.4883-4.5 4.4883s-4.5-1.9883-4.5-4.4883v-1.0117z" fill="#222"/>
</svg>
