<?xml version="1.0" encoding="UTF-8"?>
<svg width="16px" height="16px" viewBox="0 0 16 16" xmlns="http://www.w3.org/2000/svg">
 <path d="m13 0c-1.6562 0-3 1.3438-3 3 0 0.125 0.007812 0.25 0.023438 0.36719l-4.9414 2.4766c-0.53906-0.52344-1.2734-0.84375-2.082-0.84375-1.6562 0-3 1.3438-3 3s1.3438 3 3 3c0.80859 0 1.543-0.32031 2.082-0.84375l4.9414 2.4766c-0.015626 0.11719-0.023438 0.24219-0.023438 0.36719 0 1.6562 1.3438 3 3 3s3-1.3438 3-3-1.3438-3-3-3c-0.80859 0-1.543 0.32031-2.082 0.84375l-4.9414-2.4766c0.015626-0.11719 0.023438-0.24219 0.023438-0.36719s-0.007812-0.25-0.023438-0.36719l4.9414-2.4766c0.53906 0.52344 1.2734 0.84375 2.082 0.84375 1.6562 0 3-1.3438 3-3s-1.3438-3-3-3zm0 2c0.55078 0 1 0.44922 1 1s-0.44922 1-1 1-1-0.44922-1-1 0.44922-1 1-1zm-10 5c0.55078 0 1 0.44922 1 1s-0.44922 1-1 1-1-0.44922-1-1 0.44922-1 1-1zm10 5c0.55078 0 1 0.44922 1 1s-0.44922 1-1 1-1-0.44922-1-1 0.44922-1 1-1z" fill="#222"/>
</svg>
