<?xml version="1.0" encoding="UTF-8"?>
<svg width="16px" height="16px" viewBox="0 0 16 16" xmlns="http://www.w3.org/2000/svg">
 <path d="m4.5078 0c-1.3711 0-2.5 1.1328-2.5 2.5v6c0 1.3672 1.1289 2.5 2.5 2.5h2.4922v1.2695c-0.28906 0.16406-0.53516 0.40625-0.71484 0.70312h-3.2852c-0.55078 0-1 0.44922-1 1 0 0.55078 0.44922 1 1 1h3.25c0.35156 0.64062 1.0195 1.0352 1.75 1.0391 0.73047-0.003907 1.3984-0.39844 1.75-1.0391h3.2617c0.55078 0 1-0.44922 1-1 0-0.55078-0.44922-1-1-1h-3.293c-0.17578-0.29688-0.42578-0.53516-0.71094-0.70312v-1.2695h2.5c1.3672 0 2.5-1.1328 2.5-2.5v-6c0-1.3672-1.1328-2.5-2.5-2.5zm0 2h7c0.29297 0 0.5 0.20703 0.5 0.5v5c0 0.29297-0.20703 0.5-0.5 0.5h-7c-0.29687 0-0.5-0.20703-0.5-0.5v-5c0-0.29297 0.20313-0.5 0.5-0.5zm3.4922 11c0.55469 0 1.0078 0.44922 1.0078 1.0078 0 0.55469-0.45312 1.0039-1.0078 1.0039s-1.0078-0.44922-1.0078-1.0039c0-0.55859 0.45312-1.0078 1.0078-1.0078z" fill="#222"/>
</svg>
