<?xml version="1.0" encoding="UTF-8"?>
<!--
  SPDX-License-Identifier: CC0-1.0
  SPDX-FileCopyrightText: 2024 Jakub Steiner
-->
<svg width="16px" height="16px" viewBox="0 0 16 16" xmlns="http://www.w3.org/2000/svg">
 <g fill="#222">
  <path d="m3.3125 13.684c0.011719 0.007812 0.023438 0.015625 0.039062 0.019531l4.1953 2.1797c0.28906 0.15234 0.63672 0.15234 0.92578 0l4.1523-2.1797c0.019531-0.007813 0.039062-0.019531 0.058594-0.03125 3.9883-2.4492 2.25-7.6719-1.7031-7.6719-1.0117 0-1.75 0.44141-2.2383 1.1289-0.89453 1.2578-0.69141 1.2773-1.6211 0.042969-0.55469-0.73047-1.3203-1.2031-2.1289-1.1719-3.9961 0-5.6523 5.3906-1.6797 7.6836zm7.668-5.6875c1.7266 0 3.1328 2.4492 0.65625 3.9688l0.058593-0.035156-4.1523 2.1797h0.92578l-4.1953-2.1797 0.039062 0.023437c-2.3867-1.3789-1.0977-3.957 0.67969-3.957 1.3789 0 2.0391 0.94531 2.3203 1.5352 0.11719 0.25 0.39844 0.46875 0.67578 0.46875h0.011719c0.27734 0 0.55859-0.21875 0.67578-0.46875 0.28125-0.58984 0.94531-1.5352 2.3047-1.5352z"/>
  <path d="m8 4c-0.54688 0-1-0.45312-1-1s0.45312-1 1-1 1 0.45312 1 1-0.45312 1-1 1zm0-4c-1.6602 0-3 1.3398-3 3s1.3398 3 3 3 3-1.3398 3-3-1.3398-3-3-3z"/>
 </g>
</svg>
