<?xml version="1.0" encoding="UTF-8"?>
<svg width="16px" height="16px" viewBox="0 0 16 16" xmlns="http://www.w3.org/2000/svg">
 <g fill="#222">
  <path d="m4.5156 5.8984c-0.16406-0.003907-0.32422 0.0625-0.44141 0.17578-0.23047 0.23438-0.23047 0.61719 0 0.85156l1.5781 1.5742-1.5781 1.5742c-0.23047 0.23438-0.23047 0.61719 0 0.85156 0.23438 0.23047 0.61719 0.23047 0.85156 0l2-2c0.23047-0.23438 0.23047-0.61719 0-0.85156l-2-2c-0.10938-0.10547-0.25781-0.16797-0.41016-0.17578zm3.4844 4.1016v1h3v-1z"/>
  <path d="m3.0391 0c-1.668 0-3.0391 1.3711-3.0391 3.0391v8.9219c0 1.668 1.3711 3.0391 3.0391 3.0391h9.9219c1.668 0 3.0391-1.3711 3.0391-3.0391v-8.9219c0-1.668-1.3711-3.0391-3.0391-3.0391zm0 2h9.9219c0.59375 0 1.0391 0.44531 1.0391 1.0391v8.9219c0 0.59375-0.44531 1.0391-1.0391 1.0391h-9.9219c-0.59375 0-1.0391-0.44531-1.0391-1.0391v-8.9219c0-0.59375 0.44531-1.0391 1.0391-1.0391z"/>
 </g>
</svg>
