<?xml version="1.0" encoding="UTF-8"?>
<svg width="16px" height="16px" viewBox="0 0 16 16" xmlns="http://www.w3.org/2000/svg">
 <path d="m4 1c-1.6602 0-3 1.3398-3 3v6c0 1.6602 1.3398 3 3 3h8c1.6602 0 3-1.3398 3-3v-6c0-1.6602-1.3398-3-3-3zm0 2h8c0.55469 0 1 0.44531 1 1v6c0 0.55469-0.44531 1-1 1h-8c-0.55469 0-1-0.44531-1-1v-6c0-0.55469 0.44531-1 1-1zm4.5 1c-0.27734 0-0.5 0.22266-0.5 0.5s0.22266 0.5 0.5 0.5h1.793l-3.1484 3.1445c-0.19141 0.19531-0.19141 0.51562 0 0.71094 0.19531 0.19141 0.51562 0.19141 0.71094 0l3.1445-3.1484v1.793c0 0.27734 0.22266 0.5 0.5 0.5s0.5-0.22266 0.5-0.5v-3.5zm-0.5 10c-5 0-5 1-5 1 0 1 1 1 1 1h8c1 0 1-1 1-1s0-1-5-1z" fill="#222"/>
</svg>
