<?xml version="1.0" encoding="UTF-8"?>
<svg width="16px" height="16.004px" viewBox="0 0 16 16.004" xmlns="http://www.w3.org/2000/svg">
 <path d="m7.5469 0-3.0469 8h3.7148l-1.8047 3.6133-1.0117-1.2031-0.35156 5.5898 4.332-3.5859-1.6719-0.17187 4.3398-6.2422h-3.6953l3.1953-6zm-1.5664 1.3047c-2.875 0.86719-4.9805 3.5469-4.9805 6.6992 0 2.4453 1.2695 4.6055 3.1797 5.8555l0.15234-2.4492c-0.82422-0.89062-1.332-2.0859-1.332-3.4062 0-1.6172 0.75781-3.043 1.9375-3.957zm5.6289 0.70703-0.9375 1.7617c0.51562 0.32422 0.96875 0.73828 1.332 1.2266h0.042969c0.37109 0 0.71484 0.20703 0.88672 0.53516 0.17188 0.33203 0.14453 0.73047-0.066406 1.0352l-0.050782 0.078126c0.11719 0.42969 0.18359 0.88281 0.18359 1.3555 0 1.9141-1.0625 3.5703-2.6367 4.4102 0.003907 0.29688-0.125 0.57813-0.34766 0.76953l-2.1914 1.8164c0.058593 0 0.11719 0.003906 0.17578 0.003906 3.8555 0 7-3.1445 7-7 0-2.5352-1.3594-4.7656-3.3906-5.9922z" fill="#222"/>
</svg>
