<?xml version="1.0" encoding="UTF-8"?>
<svg width="128px" height="128px" viewBox="0 0 128 128" xmlns="http://www.w3.org/2000/svg">
 <linearGradient id="a" x1="8.1571" x2="122.75" y1="77.241" y2="77.241" gradientUnits="userSpaceOnUse">
  <stop stop-color="#99c1f1" offset="0"/>
  <stop stop-color="#1a5fb4" offset=".057514"/>
  <stop stop-color="#1a5fb4" offset=".38823"/>
  <stop stop-color="#2b7be0" offset=".47302"/>
  <stop stop-color="#154d91" offset=".6188"/>
  <stop stop-color="#1a5fb4" offset=".95354"/>
  <stop stop-color="#2f7fe1" offset="1"/>
 </linearGradient>
 <clipPath id="b">
  <path d="m6 1h117v118h-117z"/>
 </clipPath>
 <clipPath id="c">
  <path d="m70.336 115.85 50.098-50.098c3.2539-3.2539 3.2539-8.5312 0-11.785l-50.098-50.102c-3.2539-3.2539-8.5352-3.2539-11.789 0l-50.098 50.102c-3.2539 3.2539-3.2539 8.5312 0 11.785l50.098 50.098c3.2539 3.2578 8.5352 3.2578 11.789 0z"/>
 </clipPath>
 <clipPath id="d">
  <path d="m18 41h57v57h-57z"/>
 </clipPath>
 <clipPath id="e">
  <path d="m70.336 115.85 50.098-50.098c3.2539-3.2539 3.2539-8.5312 0-11.785l-50.098-50.102c-3.2539-3.2539-8.5352-3.2539-11.789 0l-50.098 50.102c-3.2539 3.2539-3.2539 8.5312 0 11.785l50.098 50.098c3.2539 3.2578 8.5352 3.2578 11.789 0z"/>
 </clipPath>
 <clipPath id="f">
  <path d="m36 59h56v56h-56z"/>
 </clipPath>
 <clipPath id="g">
  <path d="m70.336 115.85 50.098-50.098c3.2539-3.2539 3.2539-8.5312 0-11.785l-50.098-50.102c-3.2539-3.2539-8.5352-3.2539-11.789 0l-50.098 50.102c-3.2539 3.2539-3.2539 8.5312 0 11.785l50.098 50.098c3.2539 3.2578 8.5352 3.2578 11.789 0z"/>
 </clipPath>
 <clipPath id="h">
  <path d="m48 47h56v56h-56z"/>
 </clipPath>
 <clipPath id="i">
  <path d="m70.336 115.85 50.098-50.098c3.2539-3.2539 3.2539-8.5312 0-11.785l-50.098-50.102c-3.2539-3.2539-8.5352-3.2539-11.789 0l-50.098 50.102c-3.2539 3.2539-3.2539 8.5312 0 11.785l50.098 50.098c3.2539 3.2578 8.5352 3.2578 11.789 0z"/>
 </clipPath>
 <clipPath id="j">
  <path d="m17 48h68v69h-68z"/>
 </clipPath>
 <clipPath id="k">
  <path d="m70.336 115.85 50.098-50.098c3.2539-3.2539 3.2539-8.5312 0-11.785l-50.098-50.102c-3.2539-3.2539-8.5352-3.2539-11.789 0l-50.098 50.102c-3.2539 3.2539-3.2539 8.5312 0 11.785l50.098 50.098c3.2539 3.2578 8.5352 3.2578 11.789 0z"/>
 </clipPath>
 <clipPath id="l">
  <path d="m68 27h55v56h-55z"/>
 </clipPath>
 <clipPath id="m">
  <path d="m70.336 115.85 50.098-50.098c3.2539-3.2539 3.2539-8.5312 0-11.785l-50.098-50.102c-3.2539-3.2539-8.5352-3.2539-11.789 0l-50.098 50.102c-3.2539 3.2539-3.2539 8.5312 0 11.785l50.098 50.098c3.2539 3.2578 8.5352 3.2578 11.789 0z"/>
 </clipPath>
 <clipPath id="n">
  <path d="m48 28h34v34h-34z"/>
 </clipPath>
 <clipPath id="o">
  <path d="m70.336 115.85 50.098-50.098c3.2539-3.2539 3.2539-8.5312 0-11.785l-50.098-50.102c-3.2539-3.2539-8.5352-3.2539-11.789 0l-50.098 50.102c-3.2539 3.2539-3.2539 8.5312 0 11.785l50.098 50.098c3.2539 3.2578 8.5352 3.2578 11.789 0z"/>
 </clipPath>
 <clipPath id="p">
  <path d="m45 44h21v21h-21z"/>
 </clipPath>
 <clipPath id="q">
  <path d="m70.336 115.85 50.098-50.098c3.2539-3.2539 3.2539-8.5312 0-11.785l-50.098-50.102c-3.2539-3.2539-8.5352-3.2539-11.789 0l-50.098 50.102c-3.2539 3.2539-3.2539 8.5312 0 11.785l50.098 50.098c3.2539 3.2578 8.5352 3.2578 11.789 0z"/>
 </clipPath>
 <clipPath id="r">
  <path d="m65 24h21v21h-21z"/>
 </clipPath>
 <clipPath id="s">
  <path d="m70.336 115.85 50.098-50.098c3.2539-3.2539 3.2539-8.5312 0-11.785l-50.098-50.102c-3.2539-3.2539-8.5352-3.2539-11.789 0l-50.098 50.102c-3.2539 3.2539-3.2539 8.5312 0 11.785l50.098 50.098c3.2539 3.2578 8.5352 3.2578 11.789 0z"/>
 </clipPath>
 <clipPath id="t">
  <path d="m51 24h35v35h-35z"/>
 </clipPath>
 <clipPath id="u">
  <path d="m70.336 115.85 50.098-50.098c3.2539-3.2539 3.2539-8.5312 0-11.785l-50.098-50.102c-3.2539-3.2539-8.5352-3.2539-11.789 0l-50.098 50.102c-3.2539 3.2539-3.2539 8.5312 0 11.785l50.098 50.098c3.2539 3.2578 8.5352 3.2578 11.789 0z"/>
 </clipPath>
 <clipPath id="v">
  <path d="m64 28h15v15h-15z"/>
 </clipPath>
 <clipPath id="w">
  <path d="m70.336 115.85 50.098-50.098c3.2539-3.2539 3.2539-8.5312 0-11.785l-50.098-50.102c-3.2539-3.2539-8.5352-3.2539-11.789 0l-50.098 50.102c-3.2539 3.2539-3.2539 8.5312 0 11.785l50.098 50.098c3.2539 3.2578 8.5352 3.2578 11.789 0z"/>
 </clipPath>
 <clipPath id="x">
  <path d="m58 34h10v9h-10z"/>
 </clipPath>
 <clipPath id="y">
  <path d="m70.336 115.85 50.098-50.098c3.2539-3.2539 3.2539-8.5312 0-11.785l-50.098-50.102c-3.2539-3.2539-8.5352-3.2539-11.789 0l-50.098 50.102c-3.2539 3.2539-3.2539 8.5312 0 11.785l50.098 50.098c3.2539 3.2578 8.5352 3.2578 11.789 0z"/>
 </clipPath>
 <path d="m70.406 119.55 50.207-50.207c1.6602-1.6602 2.5742-3.8398 2.4531-6.0039l-0.14062-3.0586-52.52-52.953c-3.2578-3.2891-8.3945-3.1211-11.812 0l-52.551 52.996-0.042969 3.1445c-0.027344 2.125 0.76172 4.2461 2.3906 5.875l50.203 50.207c3.2734 3.2695 8.543 3.2695 11.812 0z" fill="url(#a)"/>
 <g clip-path="url(#b)">
  <g clip-path="url(#c)">
   <path d="m70.336 115.85 50.098-50.098c3.2539-3.2539 3.2539-8.5312 0-11.785l-50.098-50.102c-3.2539-3.2539-8.5352-3.2539-11.789 0l-50.098 50.102c-3.2539 3.2539-3.2539 8.5312 0 11.785l50.098 50.098c3.2539 3.2578 8.5352 3.2578 11.789 0z" fill="#62a0ea"/>
  </g>
 </g>
 <g clip-path="url(#d)">
  <g clip-path="url(#e)">
   <path transform="matrix(.70711 .70711 -.70711 .70711 0 -162)" d="m200.63 130.78c0 2.2926-1.8617 4.1543-4.1543 4.1543-2.2953-0.002762-4.1543-1.8617-4.157-4.157 0-2.2926 1.8617-4.1543 4.1543-4.1543 2.2953 0.002763 4.1543 1.8617 4.157 4.157z" fill="none" stroke="#99c1f1" stroke-width="4.1543"/>
  </g>
 </g>
 <g clip-path="url(#f)">
  <g clip-path="url(#g)">
   <path transform="matrix(.70711 .70711 -.70711 .70711 0 -162)" d="m225.56 130.78c0 2.2926-1.8617 4.1543-4.1543 4.1543-2.2953-0.002762-4.1543-1.8617-4.1543-4.1543-0.002762-2.2953 1.8589-4.157 4.1543-4.1543 2.2926 0 4.1515 1.8589 4.1543 4.1543z" fill="none" stroke="#99c1f1" stroke-width="4.1543"/>
  </g>
 </g>
 <g clip-path="url(#h)">
  <g clip-path="url(#i)">
   <path transform="matrix(.70711 .70711 -.70711 .70711 0 -162)" d="m225.56 114.16c0 2.2926-1.8617 4.1543-4.1543 4.1543-2.2953-0.002762-4.1543-1.8617-4.1543-4.1543-0.002762-2.2953 1.8589-4.157 4.1543-4.1543 2.2926 0 4.1515 1.8589 4.1543 4.1543z" fill="none" stroke="#99c1f1" stroke-width="4.1543"/>
  </g>
 </g>
 <g clip-path="url(#j)">
  <g clip-path="url(#k)">
   <path transform="translate(0 -162)" d="m43.516 234.34-2.9375 2.9375v5.875l11.75 11.75h5.875l2.9375-2.9375" fill="none" stroke="#99c1f1" stroke-width="4.1543"/>
  </g>
 </g>
 <g clip-path="url(#l)">
  <g clip-path="url(#m)">
   <path transform="matrix(.70711 -.70711 .70711 .70711 0 -162)" d="m-80.92 221.4c0 2.2926-1.8589 4.1515-4.1543 4.1543-2.2926 0-4.1543-1.8617-4.1543-4.1543 0.002762-2.2953 1.8617-4.1543 4.1543-4.1543 2.2953-0.002762 4.157 1.8589 4.1543 4.1543z" fill="none" stroke="#99c1f1" stroke-width="4.1543"/>
  </g>
 </g>
 <g clip-path="url(#n)">
  <g clip-path="url(#o)">
   <path d="m65.547 29.746 14.688 14.688c1.6211 1.625 1.6211 4.2539 0 5.875l-10.281 10.281c-1.6211 1.625-4.2539 1.625-5.875 0l-14.688-14.688c-1.6211-1.6211-1.6211-4.25 0-5.875l10.281-10.281c1.6211-1.6211 4.2539-1.6211 5.875 0z" fill="#1a5fb4"/>
  </g>
 </g>
 <g clip-path="url(#p)">
  <g clip-path="url(#q)">
   <path d="m50.859 44.434-4.4062 4.4062c-0.8125 0.81641-0.8125 2.125 0 2.9375 0.8125 0.81641 2.125 0.81641 2.9375 0l4.4062-4.4062zm5.875 5.875-4.4062 4.4062c-0.8125 0.81641-0.8125 2.125 0 2.9375 0.8125 0.81641 2.125 0.81641 2.9375 0l4.4062-4.4062zm5.875 5.875-4.4062 4.4062c-0.8125 0.81641-0.8125 2.125 0 2.9375 0.8125 0.81641 2.125 0.81641 2.9375 0l4.4062-4.4062z" fill="#99c1f1"/>
  </g>
 </g>
 <g clip-path="url(#r)">
  <g clip-path="url(#s)">
   <path d="m65.547 29.746 4.4062-4.4062c0.8125-0.8125 2.125-0.8125 2.9375 0 0.8125 0.81641 0.8125 2.125 0 2.9375l-4.4062 4.4062zm5.875 5.875 4.4062-4.4062c0.8125-0.8125 2.125-0.8125 2.9375 0 0.8125 0.81641 0.8125 2.125 0 2.9375l-4.4062 4.4062zm5.875 5.875 4.4062-4.4062c0.8125-0.8125 2.125-0.8125 2.9375 0 0.8125 0.81641 0.8125 2.125 0 2.9375l-4.4062 4.4062z" fill="#99c1f1"/>
  </g>
 </g>
 <g clip-path="url(#t)">
  <g clip-path="url(#u)">
   <path d="m69.953 25.34 14.688 14.688c1.6211 1.625 1.6211 4.2539 0 5.875l-11.75 11.75c-1.6211 1.625-4.2539 1.625-5.875 0l-14.688-14.688c-1.6211-1.6211-1.6211-4.25 0-5.875l11.75-11.75c1.6211-1.6211 4.2539-1.6211 5.875 0z" fill="#1c71d8"/>
  </g>
 </g>
 <g clip-path="url(#v)">
  <g clip-path="url(#w)">
   <path d="m67.016 28.277 11.75 11.75-2.9375 2.9375-11.75-11.75z" fill="#62a0ea"/>
  </g>
 </g>
 <g clip-path="url(#x)">
  <g clip-path="url(#y)">
   <path d="m61.141 34.152 5.875 5.875-2.9375 2.9375-5.875-5.875z" fill="#62a0ea"/>
  </g>
 </g>
</svg>
