<?xml version="1.0" encoding="UTF-8"?>
<svg id="svg373" width="16px" height="16px" version="1.1" viewBox="0 0 16 16" xmlns="http://www.w3.org/2000/svg">
 <filter id="a" x="0" y="0" width="1" height="1">
  <feColorMatrix id="feColorMatrix210" in="SourceGraphic" values="0 0 0 0 1 0 0 0 0 1 0 0 0 0 1 0 0 0 1 0"/>
 </filter>
 <mask id="b">
  <g id="g215" filter="url(#a)">
   <path id="path213" d="m0 0h16v16h-16z" fill-opacity=".3"/>
  </g>
 </mask>
 <clipPath id="c">
  <path id="path218" d="m0 0h1024v800h-1024z"/>
 </clipPath>
 <mask id="d">
  <g id="g223" filter="url(#a)">
   <path id="path221" d="m0 0h16v16h-16z" fill-opacity=".05"/>
  </g>
 </mask>
 <clipPath id="e">
  <path id="path226" d="m0 0h1024v800h-1024z"/>
 </clipPath>
 <mask id="f">
  <g id="g231" filter="url(#a)">
   <path id="path229" d="m0 0h16v16h-16z" fill-opacity=".05"/>
  </g>
 </mask>
 <clipPath id="g">
  <path id="path234" d="m0 0h1024v800h-1024z"/>
 </clipPath>
 <mask id="h">
  <g id="g239" filter="url(#a)">
   <path id="path237" d="m0 0h16v16h-16z" fill-opacity=".05"/>
  </g>
 </mask>
 <clipPath id="i">
  <path id="path242" d="m0 0h1024v800h-1024z"/>
 </clipPath>
 <mask id="j">
  <g id="g247" filter="url(#a)">
   <path id="path245" d="m0 0h16v16h-16z" fill-opacity=".05"/>
  </g>
 </mask>
 <clipPath id="k">
  <path id="path250" d="m0 0h1024v800h-1024z"/>
 </clipPath>
 <mask id="l">
  <g id="g255" filter="url(#a)">
   <path id="path253" d="m0 0h16v16h-16z" fill-opacity=".05"/>
  </g>
 </mask>
 <clipPath id="m">
  <path id="path258" d="m0 0h1024v800h-1024z"/>
 </clipPath>
 <mask id="n">
  <g id="g263" filter="url(#a)">
   <path id="path261" d="m0 0h16v16h-16z" fill-opacity=".05"/>
  </g>
 </mask>
 <clipPath id="o">
  <path id="path266" d="m0 0h1024v800h-1024z"/>
 </clipPath>
 <mask id="p">
  <g id="g271" filter="url(#a)">
   <path id="path269" d="m0 0h16v16h-16z" fill-opacity=".3"/>
  </g>
 </mask>
 <clipPath id="q">
  <path id="path274" d="m0 0h1024v800h-1024z"/>
 </clipPath>
 <mask id="r">
  <g id="g279" filter="url(#a)">
   <path id="path277" d="m0 0h16v16h-16z" fill-opacity=".5"/>
  </g>
 </mask>
 <clipPath id="s">
  <path id="path282" d="m0 0h1024v800h-1024z"/>
 </clipPath>
 <mask id="t">
  <g id="g287" filter="url(#a)">
   <path id="path285" d="m0 0h16v16h-16z" fill-opacity=".4"/>
  </g>
 </mask>
 <clipPath id="u">
  <path id="path290" d="m0 0h1024v800h-1024z"/>
 </clipPath>
 <mask id="v">
  <g id="g295" filter="url(#a)">
   <path id="path293" d="m0 0h16v16h-16z" fill-opacity=".4"/>
  </g>
 </mask>
 <clipPath id="w">
  <path id="path298" d="m0 0h1024v800h-1024z"/>
 </clipPath>
 <mask id="x">
  <g id="g303" filter="url(#a)">
   <path id="path301" d="m0 0h16v16h-16z" fill-opacity=".5"/>
  </g>
 </mask>
 <clipPath id="y">
  <path id="path306" d="m0 0h1024v800h-1024z"/>
 </clipPath>
 <mask id="z">
  <g id="g311" filter="url(#a)">
   <path id="path309" d="m0 0h16v16h-16z" fill-opacity=".5"/>
  </g>
 </mask>
 <clipPath id="A">
  <path id="path314" d="m0 0h1024v800h-1024z"/>
 </clipPath>
 <g id="g319" transform="translate(-760 -60)" clip-path="url(#c)" mask="url(#b)">
  <path id="path317" d="m562.46 212.06h10.449c-1.1836 0.49219-1.2969 2.4609 0 3h-10.449z" fill="#2e3436"/>
 </g>
 <path id="path323" d="m12 8c0 2.2109-1.7891 4-4 4s-4-1.7891-4-4 1.7891-4 4-4 4 1.7891 4 4z" fill="#2e3436"/>
 <g id="g327" transform="translate(-760 -60)" clip-path="url(#e)" mask="url(#d)">
  <path id="path325" d="m16 632h1v1h-1z" fill="#2e3436" fill-rule="evenodd"/>
 </g>
 <g id="g331" transform="translate(-760 -60)" clip-path="url(#g)" mask="url(#f)">
  <path id="path329" d="m17 631h1v1h-1z" fill="#2e3436" fill-rule="evenodd"/>
 </g>
 <g id="g335" transform="translate(-760 -60)" clip-path="url(#i)" mask="url(#h)">
  <path id="path333" d="m18 634h1v1h-1z" fill="#2e3436" fill-rule="evenodd"/>
 </g>
 <g id="g339" transform="translate(-760 -60)" clip-path="url(#k)" mask="url(#j)">
  <path id="path337" d="m16 634h1v1h-1z" fill="#2e3436" fill-rule="evenodd"/>
 </g>
 <g id="g343" transform="translate(-760 -60)" clip-path="url(#m)" mask="url(#l)">
  <path id="path341" d="m17 635h1v1h-1z" fill="#2e3436" fill-rule="evenodd"/>
 </g>
 <g id="g347" transform="translate(-760 -60)" clip-path="url(#o)" mask="url(#n)">
  <path id="path345" d="m19 635h1v1h-1z" fill="#2e3436" fill-rule="evenodd"/>
 </g>
 <g id="g351" transform="translate(-760 -60)" clip-path="url(#q)" mask="url(#p)">
  <path id="path349" d="m136 660v7h7v-7z" fill="#2e3436"/>
 </g>
 <g id="g355" transform="translate(-760 -60)" clip-path="url(#s)" mask="url(#r)">
  <path id="path353" d="m199 642h3v12h-3z" fill="#2e3436"/>
 </g>
 <g id="g359" transform="translate(-760 -60)" clip-path="url(#u)" mask="url(#t)">
  <path id="path357" d="m209.5 144.16c0.27734 0 0.5 0.22266 0.5 0.5v1c0 0.27734-0.22266 0.5-0.5 0.5s-0.5-0.22266-0.5-0.5v-1c0-0.27734 0.22266-0.5 0.5-0.5z" fill="#2e3436"/>
 </g>
 <g id="g363" transform="translate(-760 -60)" clip-path="url(#w)" mask="url(#v)">
  <path id="path361" d="m206.5 144.16c0.27734 0 0.5 0.22266 0.5 0.5v1c0 0.27734-0.22266 0.5-0.5 0.5s-0.5-0.22266-0.5-0.5v-1c0-0.27734 0.22266-0.5 0.5-0.5z" fill="#2e3436"/>
 </g>
 <g id="g367" transform="translate(-760 -60)" clip-path="url(#y)" mask="url(#x)">
  <path id="path365" d="m229.5 143.16c-0.54688 0-1 0.45703-1 1 0 0.54688 0.45312 1 1 1s1-0.45312 1-1c0-0.54297-0.45312-1-1-1z" fill="#2e3436"/>
 </g>
 <g id="g371" transform="translate(-760 -60)" clip-path="url(#A)" mask="url(#z)">
  <path id="path369" d="m226.45 143.16c-0.51953 0-0.95312 0.43359-0.95312 0.95312v0.09375c0 0.51953 0.43359 0.95312 0.95312 0.95312h0.09375c0.51953 0 0.95312-0.43359 0.95312-0.95312v-0.09375c0-0.51953-0.43359-0.95312-0.95312-0.95312z" fill="#2e3436"/>
 </g>
</svg>
