<?xml version="1.0" encoding="UTF-8"?>
<svg width="64" height="64" version="1.0" xmlns="http://www.w3.org/2000/svg" xmlns:xlink="http://www.w3.org/1999/xlink">
 <defs>
  <linearGradient id="f" x1="37" x2="37" y1="249" y2="254" gradientTransform="matrix(.55127 0 0 .55127 95.628 128.4)" gradientUnits="userSpaceOnUse" xlink:href="#d"/>
  <linearGradient id="d">
   <stop stop-color="#d5d1cc" offset="0"/>
   <stop stop-color="#f6f5f4" offset=".183"/>
   <stop stop-color="#fff" offset=".395"/>
   <stop stop-color="#d7d3ce" offset=".784"/>
   <stop stop-color="#c8c2bb" offset="1"/>
  </linearGradient>
  <linearGradient id="g" x1="37" x2="37" y1="249" y2="254" gradientTransform="matrix(.55127 0 0 -.55127 95.628 398.52)" gradientUnits="userSpaceOnUse" xlink:href="#d"/>
  <clipPath id="e">
   <rect x="32" y="-116" width="448.71" height="358.79" rx="32" ry="32" fill="#26a269" stroke-dasharray="4,2" stroke-linejoin="round"/>
  </clipPath>
 </defs>
 <g transform="translate(0 -236)">
  <rect x="10.207" y="246.25" width="43.808" height="43.668" rx="3.804" ry="3.804" fill="#fff" overflow="visible" stroke="#98c1f1" stroke-width="4"/>
  <path d="M4.352 239.04h57.102v57.102H4.352z" fill="none" overflow="visible" style="isolation:auto;mix-blend-mode:normal"/>
  <path d="M83.266 242.014a4.405 4.405 0 00-4.404 4.425v40.16a4.405 4.405 0 004.404 4.426h52.06a4.405 4.405 0 004.403-4.425v-40.161a4.405 4.405 0 00-4.403-4.425h-2.212a4.41 4.41 0 11-8.82 0z" fill="#98c1f1"/>
  <path d="m93.422 268.9v6.457l-2.433 2.433h-2.756l-3.63 3.63v6.77h1.103v-6.314l2.984-2.984h2.757l3.079-3.08v-6.912z" fill="#fff" font-family="sans-serif" font-weight="400" overflow="visible" style="font-feature-settings:normal;font-variant-alternates:normal;font-variant-caps:normal;font-variant-ligatures:normal;font-variant-numeric:normal;font-variant-position:normal;isolation:auto;mix-blend-mode:normal;shape-padding:0;text-decoration-color:#000;text-decoration-line:none;text-decoration-style:solid;text-indent:0;text-orientation:mixed;text-transform:none;white-space:normal"/>
  <path d="m95.627 271.1v5.911l-5.512 5.513v4.638h1.103v-4.182l5.513-5.513v-6.367z" fill="#fff" font-family="sans-serif" font-weight="400" overflow="visible" style="font-feature-settings:normal;font-variant-alternates:normal;font-variant-caps:normal;font-variant-ligatures:normal;font-variant-numeric:normal;font-variant-position:normal;isolation:auto;mix-blend-mode:normal;shape-padding:0;text-decoration-color:#000;text-decoration-line:none;text-decoration-style:solid;text-indent:0;text-orientation:mixed;text-transform:none;white-space:normal"/>
  <g transform="matrix(.13782 0 0 .1376 73.85 257.7)" clip-path="url(#e)" fill="#fff" stroke-width="1.001" paint-order="markers fill stroke">
   <path d="m402.02 182.22c6.648 0 12 5.351 12 12v56c0 6.647-5.352 12-12 12s-12-5.353-12-12v-56c0-6.649 5.352-12 12-12zm-40 0c6.648 0 12 5.351 12 12v56c0 6.647-5.352 12-12 12s-12-5.353-12-12v-56c0-6.649 5.352-12 12-12zm-40 0c6.648 0 12 5.351 12 12v56c0 6.647-5.352 12-12 12s-12-5.353-12-12v-56c0-6.649 5.352-12 12-12zm-40 0c6.648 0 12 5.351 12 12v56c0 6.647-5.352 12-12 12s-12-5.353-12-12v-56c0-6.649 5.352-12 12-12zm-40 0c6.648 0 12 5.351 12 12v56c0 6.647-5.352 12-12 12s-12-5.353-12-12v-56c0-6.649 5.352-12 12-12zm-40 0c6.648 0 12 5.351 12 12v56c0 6.647-5.352 12-12 12s-12-5.353-12-12v-56c0-6.649 5.352-12 12-12zm-40 0c6.648 0 12 5.351 12 12v56c0 6.647-5.352 12-12 12s-12-5.353-12-12v-56c0-6.649 5.352-12 12-12zm-40 0c6.648 0 12 5.351 12 12v56c0 6.647-5.352 12-12 12s-12-5.353-12-12v-56c0-6.649 5.352-12 12-12zm-40 0c6.648 0 12 5.351 12 12v56c0 6.647-5.352 12-12 12s-12-5.353-12-12v-56c0-6.649 5.352-12 12-12z"/>
   <path d="m350.02 234.78h24v16h-24zm-40 0h24v16h-24zm-40 0h24v16h-24zm-40 0h24v16h-24zm-40 0h24v16h-24zm-40 0h24v16h-24zm-40 0h24v16h-24zm-40 0h24v16h-24z"/>
   <rect x="390.02" y="234.22" width="24" height="16" rx="0" ry="0"/>
  </g>
  <path d="m102.24 271.18v7.394l4.408 4.411v2.527h1.102v-2.983l-4.407-4.41v-6.94zm-2.205 0v9.6l1.103 1.102v3.63h1.102v-4.085l-1.102-1.103v-9.144zm-2.206 0v6.938l-2.205 2.206v5.188h1.102v-4.732l2.206-2.206v-7.394z" fill="#fff" font-family="sans-serif" font-weight="400" overflow="visible" style="font-feature-settings:normal;font-variant-alternates:normal;font-variant-caps:normal;font-variant-ligatures:normal;font-variant-numeric:normal;font-variant-position:normal;isolation:auto;mix-blend-mode:normal;shape-padding:0;text-decoration-color:#000;text-decoration-line:none;text-decoration-style:solid;text-indent:0;text-orientation:mixed;text-transform:none;white-space:normal"/>
  <rect x="91.218" y="258.5" width="16.538" height="12.679" rx="1.654" ry="1.654" fill="#3584e4"/>
  <path d="m97.28 249.13v1.103h5.84l1.33 1.33v6.39h1.099v-6.845l-1.974-1.978z" fill="#fff" font-family="sans-serif" font-weight="400" overflow="visible" style="font-feature-settings:normal;font-variant-alternates:normal;font-variant-caps:normal;font-variant-ligatures:normal;font-variant-numeric:normal;font-variant-position:normal;isolation:auto;mix-blend-mode:normal;shape-padding:0;text-decoration-color:#000;text-decoration-line:none;text-decoration-style:solid;text-indent:0;text-orientation:mixed;text-transform:none;white-space:normal"/>
  <path d="M100.979 249.29l-.777.778 2.042 2.047v5.835h1.103v-6.295z" fill="#fff" font-family="sans-serif" font-weight="400" overflow="visible" style="font-feature-settings:normal;font-variant-alternates:normal;font-variant-caps:normal;font-variant-ligatures:normal;font-variant-numeric:normal;font-variant-position:normal;isolation:auto;mix-blend-mode:normal;shape-padding:0;text-decoration-color:#000;text-decoration-line:none;text-decoration-style:solid;text-indent:0;text-orientation:mixed;text-transform:none;white-space:normal"/>
  <path d="M98.224 249.29l-.781.778 2.596 2.596v5.286h1.103v-5.742z" fill="#fff" font-family="sans-serif" font-weight="400" overflow="visible" style="font-feature-settings:normal;font-variant-alternates:normal;font-variant-caps:normal;font-variant-ligatures:normal;font-variant-numeric:normal;font-variant-position:normal;isolation:auto;mix-blend-mode:normal;shape-padding:0;text-decoration-color:#000;text-decoration-line:none;text-decoration-style:solid;text-indent:0;text-orientation:mixed;text-transform:none;white-space:normal"/>
  <path d="M91.216 252.436v1.103h5.836l.781.781v3.63h1.103v-4.09l-1.424-1.424z" fill="#fff" font-family="sans-serif" font-weight="400" overflow="visible" style="font-feature-settings:normal;font-variant-alternates:normal;font-variant-caps:normal;font-variant-ligatures:normal;font-variant-numeric:normal;font-variant-position:normal;isolation:auto;mix-blend-mode:normal;shape-padding:0;text-decoration-color:#000;text-decoration-line:none;text-decoration-style:solid;text-indent:0;text-orientation:mixed;text-transform:none;white-space:normal"/>
  <path d="m95.628 253.54v4.41h1.102v-4.41zm-2.206 0v4.41h1.103v-4.41z" fill="#fff" font-family="sans-serif" font-weight="400" overflow="visible" style="font-feature-settings:normal;font-variant-alternates:normal;font-variant-caps:normal;font-variant-ligatures:normal;font-variant-numeric:normal;font-variant-position:normal;isolation:auto;mix-blend-mode:normal;shape-padding:0;text-decoration-color:#000;text-decoration-line:none;text-decoration-style:solid;text-indent:0;text-orientation:mixed;text-transform:none;white-space:normal"/>
  <path d="M93.974 255.191a.55.55 0 00-.551.551v2.207h1.102v-2.207a.55.55 0 00-.55-.551zm2.205 0a.55.55 0 00-.551.551v2.207h1.102v-2.207a.55.55 0 00-.55-.551zm2.205 0a.55.55 0 00-.551.551v2.207h1.103v-2.207a.55.55 0 00-.552-.551zm2.205 0a.55.55 0 00-.55.551v2.207h1.102v-2.207a.55.55 0 00-.552-.551zm2.205 0a.55.55 0 00-.55.551v2.207h1.102v-2.207a.55.55 0 00-.552-.551zm2.205 0a.55.55 0 00-.55.551v2.207h1.102v-2.207a.55.55 0 00-.552-.551z" fill="#fff" paint-order="markers fill stroke"/>
  <rect x="91.218" y="256.85" width="16.538" height="13.23" rx="1.654" ry="1.654" fill="#a3c7f3"/>
  <path d="m104.45 271.18v4.086l7.716 7.72v1.977h1.102v-2.434l-7.72-7.72v-3.63z" fill="#fff" font-family="sans-serif" font-weight="400" overflow="visible" style="font-feature-settings:normal;font-variant-alternates:normal;font-variant-caps:normal;font-variant-ligatures:normal;font-variant-numeric:normal;font-variant-position:normal;isolation:auto;mix-blend-mode:normal;shape-padding:0;text-decoration-color:#000;text-decoration-line:none;text-decoration-style:solid;text-indent:0;text-orientation:mixed;text-transform:none;white-space:normal"/>
  <rect x="93.423" y="260.15" width="8.269" height="1.103" rx="0" ry="0" fill="none" paint-order="markers fill stroke"/>
  <rect x="93.423" y="262.36" width="4.41" height="2.205" rx="0" ry="0" fill="none" paint-order="markers fill stroke"/>
  <rect x="98.384" y="262.36" width="6.064" height="2.205" rx="0" ry="0" fill="none" paint-order="markers fill stroke"/>
  <path d="M114.92 270.077a1.66 1.66 0 00-1.652 1.652c0 .907.746 1.656 1.653 1.656.906 0 1.656-.749 1.656-1.656 0-.907-.75-1.652-1.656-1.652zm0 1.103c.311 0 .554.238.554.55a.547.547 0 01-.553.553.543.543 0 01-.55-.554.54.54 0 01.55-.55zM119.332 270.077a1.66 1.66 0 00-1.652 1.652c0 .907.745 1.656 1.652 1.656.907 0 1.656-.749 1.656-1.656 0-.907-.75-1.652-1.656-1.652zm0 1.103c.31 0 .553.238.553.55a.547.547 0 01-.553.553.543.543 0 01-.55-.554.54.54 0 01.55-.55zM125.949 270.077c-.907 0-1.657.745-1.657 1.652 0 .907.75 1.656 1.657 1.656.906 0 1.652-.749 1.652-1.656a1.66 1.66 0 00-1.652-1.652zm0 1.103a.54.54 0 01.549.55.543.543 0 01-.55.553.547.547 0 01-.553-.554c0-.31.243-.55.554-.55zM125.949 265.666c-.907 0-1.657.75-1.657 1.656 0 .907.75 1.652 1.657 1.652a1.66 1.66 0 001.652-1.652c0-.907-.746-1.656-1.652-1.656zm0 1.103c.31 0 .549.242.549.553a.54.54 0 01-.55.55.543.543 0 01-.553-.55c0-.31.243-.553.554-.553z" fill="#fff" font-family="sans-serif" font-weight="400" overflow="visible" style="font-feature-settings:normal;font-variant-alternates:normal;font-variant-caps:normal;font-variant-ligatures:normal;font-variant-numeric:normal;font-variant-position:normal;isolation:auto;mix-blend-mode:normal;shape-padding:0;text-decoration-color:#000;text-decoration-line:none;text-decoration-style:solid;text-indent:0;text-orientation:mixed;text-transform:none;white-space:normal" paint-order="markers fill stroke"/>
  <path d="M114.371 272.832v1.33l3.309 3.31v8.04h1.102v-8.497l-3.308-3.308v-.875zM118.782 273.241v1.33l1.425 1.429h4.867l1.424-1.428v-1.331h-1.103v.875l-.777.781h-3.956l-.777-.781v-.875z" fill="#fff" font-family="sans-serif" font-weight="400" overflow="visible" style="font-feature-settings:normal;font-variant-alternates:normal;font-variant-caps:normal;font-variant-ligatures:normal;font-variant-numeric:normal;font-variant-position:normal;isolation:auto;mix-blend-mode:normal;shape-padding:0;text-decoration-color:#000;text-decoration-line:none;text-decoration-style:solid;text-indent:0;text-orientation:mixed;text-transform:none;white-space:normal"/>
  <path d="M96.181 248.025c-.907 0-1.656.75-1.656 1.656 0 .907.75 1.652 1.656 1.652a1.66 1.66 0 001.652-1.652c0-.907-.745-1.656-1.652-1.656zm0 1.103c.311 0 .55.242.55.553a.54.54 0 01-.55.55.543.543 0 01-.553-.55c0-.31.242-.553.553-.553zM90.114 251.333c-.907 0-1.653.75-1.653 1.657a1.66 1.66 0 001.653 1.652c.906 0 1.656-.745 1.656-1.652 0-.907-.75-1.657-1.656-1.657zm0 1.103c.31 0 .553.243.553.554 0 .31-.242.55-.553.55a.54.54 0 01-.55-.55c0-.311.239-.554.55-.554z" fill="#fff" font-family="sans-serif" font-weight="400" overflow="visible" style="font-feature-settings:normal;font-variant-alternates:normal;font-variant-caps:normal;font-variant-ligatures:normal;font-variant-numeric:normal;font-variant-position:normal;isolation:auto;mix-blend-mode:normal;shape-padding:0;text-decoration-color:#000;text-decoration-line:none;text-decoration-style:solid;text-indent:0;text-orientation:mixed;text-transform:none;white-space:normal" paint-order="markers fill stroke"/>
  <path d="m80.851 273h4v3h-4zm0-2h4.205v1.103h-4.205zm3.752-7.538h4.41v1.103h-4.41zm0-4.41h4.41v3.308h-4.41zm0-2.205h4.41v1.103h-4.41z" fill="#fff" paint-order="markers fill stroke"/>
  <path d="M124.292 259.598c0 .907.75 1.657 1.657 1.657.906 0 1.652-.75 1.652-1.657a1.66 1.66 0 00-1.652-1.652c-.907 0-1.657.746-1.657 1.652zm1.103 0c0-.31.243-.549.554-.549a.54.54 0 01.549.55.543.543 0 01-.55.553.547.547 0 01-.553-.554zM124.292 252.986c0 .907.75 1.652 1.657 1.652a1.66 1.66 0 001.652-1.652c0-.907-.746-1.657-1.652-1.657-.907 0-1.657.75-1.657 1.657zm1.103 0c0-.311.243-.554.554-.554.31 0 .549.243.549.554a.54.54 0 01-.55.549.543.543 0 01-.553-.55zM119.885 252.986a1.66 1.66 0 001.652 1.652 1.66 1.66 0 001.652-1.652c0-.907-.745-1.657-1.652-1.657-.907 0-1.652.75-1.652 1.657zm1.103 0c0-.311.238-.554.55-.554.31 0 .549.243.549.554a.54.54 0 01-.55.549.54.54 0 01-.55-.55z" fill="#fff" font-family="sans-serif" font-weight="400" overflow="visible" style="font-feature-settings:normal;font-variant-alternates:normal;font-variant-caps:normal;font-variant-ligatures:normal;font-variant-numeric:normal;font-variant-position:normal;isolation:auto;mix-blend-mode:normal;shape-padding:0;text-decoration-color:#000;text-decoration-line:none;text-decoration-style:solid;text-indent:0;text-orientation:mixed;text-transform:none;white-space:normal" paint-order="markers fill stroke"/>
  <path d="M127.199 252.432v1.103h.875l.777.781v3.952l-.777.781h-.875v1.103h1.33l1.425-1.424v-4.867l-1.425-1.429z" fill="#fff" font-family="sans-serif" font-weight="400" overflow="visible" style="font-feature-settings:normal;font-variant-alternates:normal;font-variant-caps:normal;font-variant-ligatures:normal;font-variant-numeric:normal;font-variant-position:normal;isolation:auto;mix-blend-mode:normal;shape-padding:0;text-decoration-color:#000;text-decoration-line:none;text-decoration-style:solid;text-indent:0;text-orientation:mixed;text-transform:none;white-space:normal"/>
  <rect x="114.37" y="260.7" width="7.718" height="6.064" rx="1.103" ry="1.103" fill="#3584e4"/>
  <path d="M115.473 266.218v1.654a.55.55 0 101.103 0v-1.654zm2.206 0v1.654a.55.55 0 101.102 0v-1.654zm2.205 0v1.654a.55.55 0 101.102 0v-1.654z" fill="url(#f)" paint-order="markers fill stroke"/>
  <path d="M115.473 260.705v-1.653a.55.55 0 111.103 0v1.653zm2.206 0v-1.653a.55.55 0 111.102 0v1.653zm2.205 0v-1.653a.55.55 0 111.102 0v1.653z" fill="url(#g)" paint-order="markers fill stroke"/>
  <rect x="114.37" y="259.05" width="7.718" height="6.615" rx="1.103" ry="1.103" fill="#a3c7f3"/>
  <rect x="115.47" y="260.15" width="4.41" height="1.103" rx="0" ry="0" fill="none" paint-order="markers fill stroke"/>
  <rect x="115.47" y="262.36" width="2.205" height="1.103" rx="0" ry="0" fill="none" paint-order="markers fill stroke"/>
  <g fill="#fff" paint-order="markers fill stroke">
   <path d="m130.91 276.69h3.308v3.308h-3.308z"/>
   <path d="m130.91 276.69h3.308v2.205h-3.308z"/>
   <path d="m130.91 276.69h1.102v2.205h-1.102zm0 3.308h1.102v-1.103h-1.102zm3.308-3.308h0.634v2.205h-0.634z"/>
   <path d="m130.91 273.38h2.956v2.205h-2.956z"/>
   <path d="m130.91 273.38h0.985v2.205h-0.985zm0 3.307h0.985v-1.102h-0.985zm2.956-3.307h0.986v2.205h-0.986zm0 3.307h0.986v-1.102h-0.986z"/>
  </g>
  <path d="M111.851 249v-4h2.103v4zM117.851 249.129v-4.13h2.033v4.13zM114.851 249.129v-4.13h2v4.13zM93.423 270.628v2.205a.55.55 0 101.102 0v-2.205zm2.205 0v2.205a.55.55 0 101.102 0v-2.205zm2.205 0v2.205a.55.55 0 101.103 0v-2.205zm2.205 0v2.205a.55.55 0 101.103 0v-2.205zm2.205 0v2.205a.55.55 0 101.103 0v-2.205zm2.205 0v2.205a.55.55 0 101.103 0v-2.205z" fill="#fff" paint-order="markers fill stroke"/>
  <path d="M14 291v2c0 .741.404 1.38 1 1.725V296c0 .554.446 1 1 1s1-.446 1-1v-1.275A1.99 1.99 0 0018 293v-2zM18 291v2c0 .741.404 1.38 1 1.725V296c0 .554.446 1 1 1s1-.446 1-1v-1.275A1.99 1.99 0 0022 293v-2zM22 291v2c0 .741.404 1.38 1 1.725V296c0 .554.446 1 1 1s1-.446 1-1v-1.275A1.99 1.99 0 0026 293v-2zM26 291v2c0 .741.404 1.38 1 1.725V296c0 .554.446 1 1 1s1-.446 1-1v-1.275A1.99 1.99 0 0030 293v-2zM30 291v2c0 .741.404 1.38 1 1.725V296c0 .554.446 1 1 1s1-.446 1-1v-1.275A1.99 1.99 0 0034 293v-2zM34 291v2c0 .741.404 1.38 1 1.725V296c0 .554.446 1 1 1s1-.446 1-1v-1.275A1.99 1.99 0 0038 293v-2zM38 291v2c0 .741.404 1.38 1 1.725V296c0 .554.446 1 1 1s1-.446 1-1v-1.275A1.99 1.99 0 0042 293v-2zM42 291v2c0 .741.404 1.38 1 1.725V296c0 .554.446 1 1 1s1-.446 1-1v-1.275A1.99 1.99 0 0046 293v-2zM46 291v2c0 .741.404 1.38 1 1.725V296c0 .554.446 1 1 1s1-.446 1-1v-1.275A1.99 1.99 0 0050 293v-2zM14 245v-2c0-.741.404-1.38 1-1.725V240c0-.554.446-1 1-1s1 .446 1 1v1.275c.596.346 1 .984 1 1.725v2zM18 245v-2c0-.741.404-1.38 1-1.725V240c0-.554.446-1 1-1s1 .446 1 1v1.275c.596.346 1 .984 1 1.725v2zM22 245v-2c0-.741.404-1.38 1-1.725V240c0-.554.446-1 1-1s1 .446 1 1v1.275c.596.346 1 .984 1 1.725v2zM26 245v-2c0-.741.404-1.38 1-1.725V240c0-.554.446-1 1-1s1 .446 1 1v1.275c.596.346 1 .984 1 1.725v2zM30 245v-2c0-.741.404-1.38 1-1.725V240c0-.554.446-1 1-1s1 .446 1 1v1.275c.596.346 1 .984 1 1.725v2zM34 245v-2c0-.741.404-1.38 1-1.725V240c0-.554.446-1 1-1s1 .446 1 1v1.275c.596.346 1 .984 1 1.725v2zM38 245v-2c0-.741.404-1.38 1-1.725V240c0-.554.446-1 1-1s1 .446 1 1v1.275c.596.346 1 .984 1 1.725v2zM42 245v-2c0-.741.404-1.38 1-1.725V240c0-.554.446-1 1-1s1 .446 1 1v1.275c.596.346 1 .984 1 1.725v2zM46 245v-2c0-.741.404-1.38 1-1.725V240c0-.554.446-1 1-1s1 .446 1 1v1.275c.596.346 1 .984 1 1.725v2zM9 250H7a1.99 1.99 0 00-1.725 1H4c-.554 0-1 .446-1 1s.446 1 1 1h1.275c.346.596.984 1 1.725 1h2zM9 254H7a1.99 1.99 0 00-1.725 1H4c-.554 0-1 .446-1 1s.446 1 1 1h1.275c.346.596.984 1 1.725 1h2zM9 258H7a1.99 1.99 0 00-1.725 1H4c-.554 0-1 .446-1 1s.446 1 1 1h1.275c.346.596.984 1 1.725 1h2zM9 262H7a1.99 1.99 0 00-1.725 1H4c-.554 0-1 .446-1 1s.446 1 1 1h1.275c.346.596.984 1 1.725 1h2zM9 266H7a1.99 1.99 0 00-1.725 1H4c-.554 0-1 .446-1 1s.446 1 1 1h1.275c.346.596.984 1 1.725 1h2zM9 270H7a1.99 1.99 0 00-1.725 1H4c-.554 0-1 .446-1 1s.446 1 1 1h1.275c.346.596.984 1 1.725 1h2zM9 274H7a1.99 1.99 0 00-1.725 1H4c-.554 0-1 .446-1 1s.446 1 1 1h1.275c.346.596.984 1 1.725 1h2zM9 278H7a1.99 1.99 0 00-1.725 1H4c-.554 0-1 .446-1 1s.446 1 1 1h1.275c.346.596.984 1 1.725 1h2zM9 282H7a1.99 1.99 0 00-1.725 1H4c-.554 0-1 .446-1 1s.446 1 1 1h1.275c.346.596.984 1 1.725 1h2zM55 250h2c.741 0 1.38.404 1.725 1H60c.554 0 1 .446 1 1s-.446 1-1 1h-1.275A1.99 1.99 0 0157 254h-2zM55 254h2c.741 0 1.38.404 1.725 1H60c.554 0 1 .446 1 1s-.446 1-1 1h-1.275A1.99 1.99 0 0157 258h-2zM55 258h2c.741 0 1.38.404 1.725 1H60c.554 0 1 .446 1 1s-.446 1-1 1h-1.275A1.99 1.99 0 0157 262h-2zM55 262h2c.741 0 1.38.404 1.725 1H60c.554 0 1 .446 1 1s-.446 1-1 1h-1.275A1.99 1.99 0 0157 266h-2zM55 266h2c.741 0 1.38.404 1.725 1H60c.554 0 1 .446 1 1s-.446 1-1 1h-1.275A1.99 1.99 0 0157 270h-2zM55 270h2c.741 0 1.38.404 1.725 1H60c.554 0 1 .446 1 1s-.446 1-1 1h-1.275A1.99 1.99 0 0157 274h-2zM55 274h2c.741 0 1.38.404 1.725 1H60c.554 0 1 .446 1 1s-.446 1-1 1h-1.275A1.99 1.99 0 0157 278h-2zM55 278h2c.741 0 1.38.404 1.725 1H60c.554 0 1 .446 1 1s-.446 1-1 1h-1.275A1.99 1.99 0 0157 282h-2zM55 282h2c.741 0 1.38.404 1.725 1H60c.554 0 1 .446 1 1s-.446 1-1 1h-1.275A1.99 1.99 0 0157 286h-2z" fill="#98c1f1"/>
  <rect x="18" y="256" width="14" height="4" rx="1" ry="1" fill="#98c1f1"/>
  <rect x="18" y="262" width="20" height="4" rx="1" ry="1" fill="#98c1f1"/>
 </g>
</svg>
