<?xml version="1.0" encoding="UTF-8"?>
<svg width="64" height="64" version="1.0" xmlns="http://www.w3.org/2000/svg">
 <g transform="translate(0 -236)">
  <rect x="-103.79" y="240.16" width="56.02" height="55.841" rx="3.804" ry="3.804" fill="#fff" overflow="visible" stroke="#98c1f1" stroke-width="4"/>
  <path d="m-103.54 239.04h57.102v57.102h-57.102z" fill="none" overflow="visible" style="isolation:auto;mix-blend-mode:normal"/>
  <rect transform="rotate(90)" x="287.97" y="77.893" width="2" height="12" rx="0" ry="0" color="#bebebe" fill="#98c1f1" overflow="visible"/>
  <path d="M-90.46 284l-5.719 5.719a1.01 1.01 0 01-.719.281h-1v-1c0-.256.086-.523.282-.719l4.28-4.281-4.28-4.281a1.01 1.01 0 01-.282-.719v-1h1c.256 0 .523.085.72.281z" fill="#98c1f1"/>
  <path d="m-103.3 255.5h55.08" fill="#eeeeec" overflow="visible" stroke="#98c1f1" style="isolation:auto;mix-blend-mode:normal"/>
  <path d="M-58.543 245.956l-.025.025h-1.136v1.153l-.017.018 1.779 1.764-1.78 1.763.026.025h-.008v1.16h1.151l.01.01.01-.01h.014v-.014l1.767-1.753 1.793 1.776.01-.01h1.164v-1.16h-.02l.024-.026-1.779-1.763 1.78-1.764-.01-.01h.005v-1.161h-1.15l-.024-.025-1.793 1.776z" fill="#98c1f1" font-family="sans-serif" font-weight="400" overflow="visible" style="font-feature-settings:normal;font-variant-alternates:normal;font-variant-caps:normal;font-variant-ligatures:normal;font-variant-numeric:normal;font-variant-position:normal;isolation:auto;mix-blend-mode:normal;shape-padding:0;text-decoration-color:#000;text-decoration-line:none;text-decoration-style:solid;text-indent:0;text-orientation:mixed;text-transform:none;white-space:normal"/>
  <rect x="1.948" y="262.08" width="59.917" height="29.959" rx="4.609" ry="4.609" fill="#98c1f1"/>
  <rect x="1.948" y="246" width="59.917" height="40.001" rx="6.377" ry="6.377" fill="#fff"/>
  <circle transform="translate(38.82 252.34) scale(.14403)" cx="128" cy="204" r="8" fill="#98c1f1"/>
  <circle transform="translate(-11.879 252.34) scale(.14403)" cx="128" cy="204" r="8" fill="#98c1f1"/>
  <circle transform="translate(38.82 221.22) scale(.14403)" cx="128" cy="204" r="8" fill="#98c1f1"/>
  <circle transform="translate(-11.879 221.22) scale(.14403)" cx="128" cy="204" r="8" fill="#98c1f1"/>
  <circle transform="translate(6.557 252.34) scale(.14403)" cx="128" cy="204" r="8" fill="#98c1f1"/>
  <circle transform="translate(6.557 221.22) scale(.14403)" cx="128" cy="204" r="8" fill="#98c1f1"/>
  <path d="M13.471 250.608s-.817-.016-1.668.41c-.85.425-1.789 1.51-1.789 3.046 0 .78-.231.894-.525 1.058-.285.16-.574.186-.591.188-.647-.02-1.197.032-1.698.204-.523.178-.994.53-1.273.96-.558.86-.446 1.675-.449 2.288L5.405 274.8c-.008 1.902 1.562 3.463 3.457 3.463 0 0 .336.016.637.166.301.15.515.218.515.986 0 0-.016.817.41 1.667.425.851 1.51 1.79 3.047 1.79h6.913c.637 0 1.153-.516 1.153-1.153 0-1.92.79-2.563 1.667-3.002.878-.438 1.79-.454 1.79-.454H29.856a16.132 16.132 0 0011.268 4.609c8.91 0 16.132-7.223 16.132-16.132 0-8.91-7.223-16.131-16.132-16.131a16.13 16.13 0 00-9.973 3.456l-3.74 1.247c-.635.212-3.685-.958-4.105-.504-.034-.016-.068-.028-.103-.045-.877-.439-1.667-1.082-1.667-3.002 0-.637-.516-1.152-1.153-1.152zm27.654 12.674a3.457 3.457 0 110 6.914 3.457 3.457 0 010-6.914z" fill="#98c1f1" font-family="sans-serif" font-weight="400" overflow="visible" style="font-feature-settings:normal;font-variant-alternates:normal;font-variant-caps:normal;font-variant-ligatures:normal;font-variant-numeric:normal;font-variant-position:normal;isolation:auto;mix-blend-mode:normal;shape-padding:0;text-decoration-color:#000;text-decoration-line:none;text-decoration-style:solid;text-indent:0;text-orientation:mixed;text-transform:none;white-space:normal"/>
  <path d="M13.471 249.455s-.817-.016-1.668.41c-.85.425-1.789 1.51-1.789 3.047 0 .78-.231.894-.525 1.058-.285.16-.574.186-.591.188-.647-.02-1.197.032-1.698.203-.523.18-.994.53-1.273.96-.558.86-.446 1.676-.449 2.289l-.073 16.037c-.008 1.901 1.562 3.462 3.457 3.462 0 0 .336.016.637.167.301.15.515.217.515.986 0 0-.016.816.41 1.667.425.851 1.51 1.79 3.047 1.79h6.913c.637 0 1.153-.517 1.153-1.153 0-1.92.79-2.563 1.667-3.002.878-.439 1.79-.455 1.79-.455h4.863a16.132 16.132 0 0011.268 4.61 16.132 16.132 0 0016.132-16.132 16.132 16.132 0 00-16.132-16.132 16.132 16.132 0 00-11.285 4.61h-4.847s-.911-.017-1.789-.455c-.877-.439-1.667-1.082-1.667-3.002 0-.637-.516-1.153-1.153-1.153zm27.654 12.675a3.457 3.457 0 013.457 3.457 3.457 3.457 0 01-3.457 3.457 3.457 3.457 0 01-3.457-3.457 3.457 3.457 0 013.457-3.457z" fill="#c3dbf7" font-family="sans-serif" font-weight="400" overflow="visible" style="font-feature-settings:normal;font-variant-alternates:normal;font-variant-caps:normal;font-variant-ligatures:normal;font-variant-numeric:normal;font-variant-position:normal;isolation:auto;mix-blend-mode:normal;shape-padding:0;text-decoration-color:#000;text-decoration-line:none;text-decoration-style:solid;text-indent:0;text-orientation:mixed;text-transform:none;white-space:normal"/>
  <rect x="2.956" y="245.01" width="57.903" height="41.986" rx="4.454" ry="4.838" fill="none" stroke="#98c1f1" stroke-width="2.014"/>
 </g>
</svg>
