<?xml version="1.0" encoding="UTF-8"?>
<svg width="16px" height="16px" viewBox="0 0 16 16" xmlns="http://www.w3.org/2000/svg">
 <path d="m3.5 0c-1.3672 0-2.5 1.1328-2.5 2.5v6c0 1.8945 0.94922 3.668 2.5234 4.7188l3.9219 2.6133c0.33594 0.22266 0.77344 0.22266 1.1094 0l3.9219-2.6133c1.5742-1.0508 2.5234-2.8242 2.5234-4.7188v-6c0-1.3672-1.1328-2.5-2.5-2.5zm0 2h9c0.28906 0 0.5 0.21094 0.5 0.5v6c0 1.2305-0.61328 2.375-1.6367 3.0547l-3.3633 2.2461-3.3633-2.2461c-1.0234-0.67969-1.6367-1.8242-1.6367-3.0547v-6c0-0.28906 0.21094-0.5 0.5-0.5zm4.5 2c-1.1055 0-2 0.89453-2 2 0.003906 0.71094 0.38281 1.3711 1 1.7266v3.2734h2v-3.2734c0.61719-0.35547 0.99609-1.0156 1-1.7266 0-1.1055-0.89453-2-2-2z" fill="#222"/>
</svg>
