<?xml version="1.0" encoding="UTF-8"?>
<svg width="16px" height="16px" viewBox="0 0 16 16" xmlns="http://www.w3.org/2000/svg">
 <g fill="#222">
  <path d="m8 0c-2.2031 0-4 1.7969-4 4s1.7969 4 4 4 4-1.7969 4-4-1.7969-4-4-4zm0 1.9727c1.1211-0.003906 2.0312 0.90625 2.0273 2.0273 0.003906 1.1211-0.90625 2.0312-2.0273 2.0273-1.1211 0.003906-2.0312-0.90625-2.0273-2.0273-0.003906-1.1211 0.90625-2.0312 2.0273-2.0273zm-4 5.0273c-2.2031 0-4 1.7969-4 4s1.7969 4 4 4 4-1.7969 4-4-1.7969-4-4-4zm8.0312 0c-2.2109 0-4 1.7891-4 4s1.7891 4 4 4c2.207 0 4-1.793 4-4s-1.793-4-4-4zm-8.0312 1.9727c1.1211-0.003906 2.0312 0.90625 2.0273 2.0273 0.003906 1.1211-0.90625 2.0312-2.0273 2.0273-1.1211 0.003906-2.0312-0.90625-2.0273-2.0273-0.003906-1.1211 0.90625-2.0312 2.0273-2.0273z"/>
  <path d="m6.5 11c0 1.3828-1.1211 2.5-2.5 2.5-1.3828 0-2.5-1.1211-2.5-2.5s1.1172-2.5 2.5-2.5c1.3789 0 2.5 1.1172 2.5 2.5z" fill-opacity=".34902"/>
 </g>
</svg>
