<?xml version="1.0" encoding="UTF-8"?>
<svg width="16px" height="16px" viewBox="0 0 16 16" xmlns="http://www.w3.org/2000/svg">
 <path d="m3.0117 0c-1.6445 0-3 1.3555-3 3v7c0 1.6445 1.3555 3 3 3h10c1.6445 0 3-1.3555 3-3v-5h-0.011719c0-0.55078-0.44922-1-1-1s-1 0.44922-1 1v0.5l0.011719 4.5c0 0.57031-0.42969 1-1 1h-10c-0.57031 0-1-0.42969-1-1v-7c0-0.57031 0.42969-1 1-1h5.9883c0.55078 0 1-0.44922 1-1 0-0.54297-0.4375-0.98828-0.98047-1zm10.398 0-3.4688 3.457c0.68359 0.35547 1.2344 0.91016 1.5898 1.5898l0.17188-0.17188 0.007813 0.007812 4.3008-4.3008v-0.58203zm-5.3984 4c-1.6562 0-3 1.3398-3 3v3h3c1.6602 0.007812 3-1.3438 3-3 0-1.6602-1.3398-3-3-3zm0 10c-5 0-5 1-5 1 0 1 1 1 1 1h8c1 0 1-1 1-1s0-1-5-1z" fill="#222"/>
</svg>
