<?xml version="1.0" encoding="UTF-8"?>
<svg width="16px" height="16px" viewBox="0 0 16 16" xmlns="http://www.w3.org/2000/svg">
 <path d="m8 0c-3.8555 0-7 3.1484-7 7 0 0.875 0.16406 1.7148 0.45703 2.4844 0.13672 0.39062 0.32812 0.76953 0.55859 1.1484 0.058594 0.09375 0.11328 0.18359 0.17188 0.27344h0.003906c0.73047 1.1094 1.9961 2.2539 3.1172 3.2109 1.1211 0.95703 2.0938 1.6836 2.0938 1.6836 0.35156 0.26562 0.84375 0.26562 1.1992 0 0 0 0.96094-0.72266 2.0781-1.6758 1.1133-0.94922 2.375-2.082 3.1094-3.1875l0.003907-0.003906c-0.023438 0.03125 0 0 0.011719-0.019532l0.011718-0.015624c0.027344-0.039063 0.046875-0.070313 0.054688-0.082032 0-0.003906 0-0.003906 0.003906-0.007812 0.023438-0.035156 0.027344-0.046875 0.03125-0.046875l0.003906-0.007813c0.023438-0.042968 0.058594-0.09375 0.10156-0.16406 0-0.003906 0.003906-0.007813 0.007812-0.015625l0.003907-0.007813c0-0.003906 0.003906-0.003906 0.007812-0.007812 0.21094-0.35547 0.38281-0.71094 0.51172-1.0742 0.28906-0.76953 0.45703-1.6094 0.45703-2.4844 0-3.8516-3.1445-7-7-7zm0 2c2.7734 0 5 2.2266 5 5 0 0.63281-0.11719 1.2266-0.32812 1.7812-0.003906 0.011719-0.007813 0.023438-0.011719 0.03125-0.070312 0.20703-0.19141 0.45703-0.35547 0.73438-0.003907 0.003906-0.007813 0.011719-0.011719 0.015625-0.015625 0.03125-0.039063 0.070312-0.074219 0.12109-0.003906 0.003906-0.003906 0.007812-0.007812 0.011718-0.019532 0.035157-0.027344 0.042969-0.023438 0.035157-0.023438 0.039062-0.039062 0.0625-0.042969 0.066406-0.007812 0.011719-0.003906 0.007813-0.015625 0.023437 0 0.003907-0.003906 0.003907-0.003906 0.007813-0.46094 0.69922-1.6797 1.8711-2.7422 2.7773-0.74219 0.63281-1.043 0.85156-1.3828 1.1133-0.33984-0.26172-0.64453-0.48438-1.3945-1.1211-1.0664-0.91406-2.2891-2.0938-2.7461-2.7891-0.050781-0.078125-0.097656-0.15234-0.13672-0.21484-0.17969-0.29688-0.30859-0.5625-0.38281-0.77734-0.003906-0.011718-0.007813-0.023437-0.011719-0.03125-0.21094-0.55859-0.32812-1.1523-0.32812-1.7852 0-2.7734 2.2266-5 5-5zm0 2c-1.6484 0-3 1.3594-3 3 0 1.6484 1.3555 3 3 3 1.6445 0.003906 3-1.3516 3-3 0-1.6445-1.3555-3-3-3zm0 2c0.5625 0 1 0.43359 1 1 0 0.5625-0.4375 1-1 1s-1-0.4375-1-1 0.43359-1 1-1z" fill="#222"/>
</svg>
