<?xml version="1.0" encoding="UTF-8"?>
<!--
  SPDX-License-Identifier: CC0-1.0
  SPDX-FileCopyrightText: 2024 Sam Hewitt
-->
<svg id="svg2" width="16px" height="16px" version="1.1" viewBox="0 0 16 16" xmlns="http://www.w3.org/2000/svg">
 <path id="path501" d="m3 1v1c0 2.6333 0.55417 4.134 1.168 5.0547 0.3069 0.46034 0.61317 0.76834 0.75977 0.93945 0.01 8e-3 0.00967 0.00869 0.013672 0.015625-0.014 0.0171-0.010297 0.0088-0.029297 0.035156-0.1487 0.18238-0.4478 0.49877-0.75 0.96289-0.6045 0.92824-1.1621 2.4262-1.1621 4.9922v1a1 1 45 0 0 1 1h8a1 1 135 0 0 1-1v-1c0-2.566-0.55761-4.0639-1.1621-4.9922-0.3022-0.46412-0.6013-0.78051-0.75-0.96289-0.022-0.02636-0.0163-0.018046-0.0293-0.035156 0.01-0.0069 0.01163-0.0076 0.01563-0.015625 0.1466-0.17111 0.45286-0.47912 0.75976-0.93945 0.50272-0.75406 0.96457-1.8993 1.1153-3.7358 0.052399-0.63844 0.050712-1.6782 0.050712-2.3189a1 1 45 0 0-1-1h-8a1 1 135 0 0-1 1zm2 1h6c0 2.3667-0.44583 3.366-0.83203 3.9453-0.1931 0.28966-0.38683 0.48166-0.61523 0.74805-0.2283 0.26639-0.55273 0.72331-0.55273 1.3066s0.31091 1.0312 0.53711 1.3086c0.2263 0.27737 0.4272 0.48734 0.625 0.79102 0.3955 0.60736 0.83789 1.6088 0.83789 3.9004h-6c0-2.2916 0.44239-3.293 0.83789-3.9004 0.1978-0.30368 0.3987-0.51364 0.625-0.79102 0.2262-0.27737 0.53711-0.72526 0.53711-1.3086s-0.32443-1.0403-0.55273-1.3066c-0.2284-0.26639-0.42213-0.45839-0.61523-0.74805-0.3858-0.57936-0.83203-1.5786-0.83203-3.9453z"/>
 <path id="path505" d="m6 4c0 1 2 2.4141 2 3.4141 0-1 2-2.4141 2-3.4141zm2 8s-2 1-2 2h4c0-1-2-2-2-2z" style="fill-opacity:.35"/>
</svg>
