<?xml version="1.0" encoding="UTF-8"?>
<svg width="16px" height="16px" viewBox="0 0 16 16" xmlns="http://www.w3.org/2000/svg">
 <path d="m8.5156-0.0078125c-3.0273 0-5.5 2.4727-5.5 5.5v0.5c0 0.55078 0.44531 1 1 1 0.55078 0 1-0.44922 1-1v-0.5c0-1.9453 1.5547-3.5 3.5-3.5 1.9414 0 3.5 1.5547 3.5 3.5v0.20703c0 0.83984-0.375 1.6328-1.0195 2.1719l-0.085938 0.074218c-1.168 0.97266-1.9727 2.3203-2.2695 3.8125l-0.10938 0.53906c-0.19141 0.97266-1.0273 1.6484-2.0156 1.6758-0.93359-0.125-1.6016-0.93359-1.5078-1.8789l0.007813-0.050781v-0.050781c0-0.55078-0.44922-1-1-1-0.55469 0-1 1.5508-1 1v-0.015626c-0.16016 2.0078 1.332 3.8047 3.3477 4.0117l0.050781 0.003907h0.050782c1.9531 0 3.6445-1.3906 4.0312-3.3047l0.10547-0.53516c0.21094-1.0469 0.76953-1.9883 1.5898-2.6719l0.085938-0.070313c1.1016-0.91797 1.7383-2.2773 1.7383-3.7109v-0.20703c0-3.0273-2.4766-5.5-5.5-5.5zm-0.015625 3.0078c-1.3672 0-2.5 1.1328-2.5 2.5v1.5c0 0.55078 0.44922 1 1 1s1-0.44922 1-1v-1.5c0-0.28906 0.21094-0.5 0.5-0.5s0.5 0.21094 0.5 0.5v0.5c0 0.55078 0.44922 1 1 1s1-0.44922 1-1v-0.5c0-1.3672-1.1328-2.5-2.5-2.5z" fill="#222"/>
</svg>
