<?xml version="1.0" encoding="UTF-8"?>
<svg width="16px" height="16px" viewBox="0 0 16 16" xmlns="http://www.w3.org/2000/svg">
 <path d="m3.0195 1c-1.6523 0-3.0117 1.3633-3.0117 3.0117 0 1.6523 1.3594 3.0156 3.0117 3.0156h3.9805v0.97266c0 1.1172-0.88281 2-2 2h-1.2695c-0.34766-0.59766-0.99609-1-1.7305-1-1.0977 0-2 0.90234-2 2s0.90234 2 2 2c0.73438 0 1.3828-0.40234 1.7305-1h1.2695c0.72656 0 1.4102-0.19922 2-0.54297v0.6875c-0.59766 0.34766-1 0.99219-1 1.7305 0 1.0977 0.90234 2 2 2s2-0.90234 2-2c0-0.73828-0.40234-1.3828-1-1.7305v-0.6875c0.58984 0.34375 1.2734 0.54297 2 0.54297h1.2695c0.34766 0.59766 0.99609 1 1.7305 1 1.0977 0 2-0.90234 2-2s-0.90234-2-2-2c-0.73438 0-1.3828 0.40234-1.7305 1h-1.2695c-1.1172 0-2-0.88281-2-2v-0.97266h3.9805c1.6523 0 3.0117-1.3633 3.0117-3.0156 0-1.6484-1.3594-3.0117-3.0117-3.0117zm0 2h0.10156c0.49609 0.0625 0.87109 0.47656 0.87109 0.98828 0 0.55859-0.44141 1-1 1-0.41016 0-0.75781-0.23828-0.91406-0.58594-0.046875-0.12109-0.074219-0.25-0.074219-0.39062 0-0.57422 0.4375-1.0117 1.0117-1.0117zm1.707 0h8.2539c0.57812 0 1.0117 0.4375 1.0117 1.0117 0 0.57812-0.43359 1.0156-1.0117 1.0156h-8.2812c0.1875-0.30469 0.29297-0.66016 0.29297-1.0391 0-0.35938-0.097657-0.69531-0.26563-0.98828zm-2.7266 7c0.55859 0 1 0.44141 1 1s-0.44141 1-1 1-1-0.44141-1-1 0.44141-1 1-1zm12 0c0.55859 0 1 0.44141 1 1s-0.44141 1-1 1-1-0.44141-1-1 0.44141-1 1-1zm-6 2.875c0.55859 0 1 0.44141 1 1 0 0.55469-0.44141 1-1 1s-1-0.44531-1-1c0-0.55859 0.44141-1 1-1z" fill="#222"/>
</svg>
