<?xml version="1.0" encoding="UTF-8"?>
<svg width="16px" height="16px" viewBox="0 0 16 16" xmlns="http://www.w3.org/2000/svg">
 <path d="m8 2c-3.4453 0-6.2852 2.3203-7.8359 5.5938-0.13281 0.26953-0.12891 0.58594 0 0.85938 1.5547 3.2305 4.3906 5.5469 7.8359 5.5469s6.2734-2.3125 7.8945-5.5508c0.14062-0.28516 0.14062-0.61328 0-0.89844-1.6211-3.2383-4.4492-5.5508-7.8945-5.5508zm0 2c2.5781 0.042969 4.4453 1.7188 5.7461 4-1.3242 2.3281-3.1875 4-5.7461 4s-4.4609-1.6875-5.7344-4.0352c1.2812-2.3594 3.1562-4.0078 5.7344-3.9648zm0 1c-1.6562 0-3 1.3438-3 3s1.3438 3 3 3 3-1.3438 3-3-1.3438-3-3-3z" fill="#222"/>
</svg>
